<?xml version="1.0" encoding="UTF-8"?>
<svg xmlns="http://www.w3.org/2000/svg" viewBox="0 0 512 512" width="512" height="512">
  <defs>
    <radialGradient id="bg-ghagiel" cx="50%" cy="50%" r="70%">
      <stop offset="0%" stop-color="#aaaaaa" stop-opacity="0.10"/>
      <stop offset="100%" stop-color="#0a0a0a" stop-opacity="1"/>
    </radialGradient>
    <filter id="glow-ghagiel" x="-50%" y="-50%" width="200%" height="200%">
      <feGaussianBlur in="SourceGraphic" stdDeviation="6" result="blur"/>
      <feMerge>
        <feMergeNode in="blur"/>
        <feMergeNode in="SourceGraphic"/>
      </feMerge>
    </filter>
  </defs>
  <rect width="512" height="512" fill="url(#bg-ghagiel)"/>
  <rect x="1" y="1" width="510" height="510" fill="none"
        stroke="#aaaaaa" stroke-opacity="0.10" stroke-width="2"/>
  <g filter="url(#glow-ghagiel)" opacity="0.42">
    <!-- radiating fragments -->
    <line x1="316.0" y1="256.0" x2="346.0" y2="256.0" stroke="#aaaaaa" stroke-width="2" stroke-opacity="0.15"/>
<circle cx="346.0" cy="256.0" r="2" fill="#aaaaaa" fill-opacity="0.15"/>
<line x1="332.1" y1="280.7" x2="379.6" y2="296.2" stroke="#aaaaaa" stroke-width="2" stroke-opacity="0.21"/>
<circle cx="379.6" cy="296.2" r="3" fill="#aaaaaa" fill-opacity="0.21"/>
<line x1="336.9" y1="314.8" x2="393.5" y2="355.9" stroke="#aaaaaa" stroke-width="2" stroke-opacity="0.27"/>
<circle cx="393.5" cy="355.9" r="4" fill="#aaaaaa" fill-opacity="0.27"/>
<line x1="326.5" y1="353.1" x2="344.2" y2="377.4" stroke="#aaaaaa" stroke-width="2" stroke-opacity="0.33"/>
<circle cx="344.2" cy="377.4" r="2" fill="#aaaaaa" fill-opacity="0.33"/>
<line x1="274.5" y1="313.1" x2="290.0" y2="360.6" stroke="#aaaaaa" stroke-width="2" stroke-opacity="0.39"/>
<circle cx="290.0" cy="360.6" r="3" fill="#aaaaaa" fill-opacity="0.39"/>
<line x1="256.0" y1="336.0" x2="256.0" y2="406.0" stroke="#aaaaaa" stroke-width="2" stroke-opacity="0.15"/>
<circle cx="256.0" cy="406.0" r="4" fill="#aaaaaa" fill-opacity="0.15"/>
<line x1="225.1" y1="351.1" x2="215.8" y2="379.6" stroke="#aaaaaa" stroke-width="2" stroke-opacity="0.21"/>
<circle cx="215.8" cy="379.6" r="2" fill="#aaaaaa" fill-opacity="0.21"/>
<line x1="185.5" y1="353.1" x2="156.1" y2="393.5" stroke="#aaaaaa" stroke-width="2" stroke-opacity="0.27"/>
<circle cx="156.1" cy="393.5" r="3" fill="#aaaaaa" fill-opacity="0.27"/>
<line x1="207.5" y1="291.3" x2="150.8" y2="332.4" stroke="#aaaaaa" stroke-width="2" stroke-opacity="0.33"/>
<circle cx="150.8" cy="332.4" r="4" fill="#aaaaaa" fill-opacity="0.33"/>
<line x1="179.9" y1="280.7" x2="151.4" y2="290.0" stroke="#aaaaaa" stroke-width="2" stroke-opacity="0.39"/>
<circle cx="151.4" cy="290.0" r="2" fill="#aaaaaa" fill-opacity="0.39"/>
<line x1="156.0" y1="256.0" x2="106.0" y2="256.0" stroke="#aaaaaa" stroke-width="2" stroke-opacity="0.15"/>
<circle cx="106.0" cy="256.0" r="3" fill="#aaaaaa" fill-opacity="0.15"/>
<line x1="141.9" y1="218.9" x2="75.3" y2="197.3" stroke="#aaaaaa" stroke-width="2" stroke-opacity="0.21"/>
<circle cx="75.3" cy="197.3" r="4" fill="#aaaaaa" fill-opacity="0.21"/>
<line x1="207.5" y1="220.7" x2="183.2" y2="203.1" stroke="#aaaaaa" stroke-width="2" stroke-opacity="0.27"/>
<circle cx="183.2" cy="203.1" r="2" fill="#aaaaaa" fill-opacity="0.27"/>
<line x1="209.0" y1="191.3" x2="179.6" y2="150.8" stroke="#aaaaaa" stroke-width="2" stroke-opacity="0.33"/>
<circle cx="179.6" cy="150.8" r="3" fill="#aaaaaa" fill-opacity="0.33"/>
<line x1="225.1" y1="160.9" x2="203.5" y2="94.3" stroke="#aaaaaa" stroke-width="2" stroke-opacity="0.39"/>
<circle cx="203.5" cy="94.3" r="4" fill="#aaaaaa" fill-opacity="0.39"/>
<line x1="256.0" y1="136.0" x2="256.0" y2="106.0" stroke="#aaaaaa" stroke-width="2" stroke-opacity="0.15"/>
<circle cx="256.0" cy="106.0" r="2" fill="#aaaaaa" fill-opacity="0.15"/>
<line x1="274.5" y1="198.9" x2="290.0" y2="151.4" stroke="#aaaaaa" stroke-width="2" stroke-opacity="0.21"/>
<circle cx="290.0" cy="151.4" r="3" fill="#aaaaaa" fill-opacity="0.21"/>
<line x1="303.0" y1="191.3" x2="344.2" y2="134.6" stroke="#aaaaaa" stroke-width="2" stroke-opacity="0.27"/>
<circle cx="344.2" cy="134.6" r="4" fill="#aaaaaa" fill-opacity="0.27"/>
<line x1="336.9" y1="197.2" x2="361.2" y2="179.6" stroke="#aaaaaa" stroke-width="2" stroke-opacity="0.33"/>
<circle cx="361.2" cy="179.6" r="2" fill="#aaaaaa" fill-opacity="0.33"/>
<line x1="370.1" y1="218.9" x2="417.7" y2="203.5" stroke="#aaaaaa" stroke-width="2" stroke-opacity="0.39"/>
<circle cx="417.7" cy="203.5" r="3" fill="#aaaaaa" fill-opacity="0.39"/>
<circle cx="404.2" cy="279.5" r="1.5" fill="#aaaaaa" fill-opacity="0.08"/>
<circle cx="405.2" cy="347.4" r="1.5" fill="#aaaaaa" fill-opacity="0.11"/>
<circle cx="373.6" cy="417.8" r="1.5" fill="#aaaaaa" fill-opacity="0.14"/>
<circle cx="291.0" cy="401.9" r="1.5" fill="#aaaaaa" fill-opacity="0.17"/>
<circle cx="228.6" cy="428.8" r="1.5" fill="#aaaaaa" fill-opacity="0.08"/>
<circle cx="151.5" cy="426.5" r="1.5" fill="#aaaaaa" fill-opacity="0.11"/>
<circle cx="134.6" cy="344.2" r="1.5" fill="#aaaaaa" fill-opacity="0.14"/>
<circle cx="85.8" cy="296.9" r="1.5" fill="#aaaaaa" fill-opacity="0.17"/>
<circle cx="58.5" cy="224.7" r="1.5" fill="#aaaaaa" fill-opacity="0.08"/>
<circle cx="128.1" cy="177.6" r="1.5" fill="#aaaaaa" fill-opacity="0.11"/>
<circle cx="153.1" cy="114.4" r="1.5" fill="#aaaaaa" fill-opacity="0.14"/>
<circle cx="209.3" cy="61.5" r="1.5" fill="#aaaaaa" fill-opacity="0.17"/>
<circle cx="279.5" cy="107.8" r="1.5" fill="#aaaaaa" fill-opacity="0.08"/>
<circle cx="347.4" cy="106.8" r="1.5" fill="#aaaaaa" fill-opacity="0.11"/>
<circle cx="417.8" cy="138.4" r="1.5" fill="#aaaaaa" fill-opacity="0.14"/>
<circle cx="401.9" cy="221.0" r="1.5" fill="#aaaaaa" fill-opacity="0.17"/>
    <!-- core explosion rings -->
    <circle cx="256" cy="256" r="35" fill="#aaaaaa" fill-opacity="0.12"
            stroke="#aaaaaa" stroke-width="2"/>
    <circle cx="256" cy="256" r="20" fill="#aaaaaa" fill-opacity="0.20"
            stroke="#aaaaaa" stroke-width="1.5"/>
    <circle cx="256" cy="256" r="8" fill="#aaaaaa" fill-opacity="0.35"/>
    <!-- shockwave ring -->
    <circle cx="256" cy="256" r="140" fill="none"
            stroke="#aaaaaa" stroke-width="1" stroke-opacity="0.12"
            stroke-dasharray="6 8"/>
  </g>
</svg>
