<?xml version="1.0" encoding="UTF-8"?>
<svg xmlns="http://www.w3.org/2000/svg" viewBox="0 0 512 512" width="512" height="512">
  <defs>
    <radialGradient id="bg-satariel" cx="50%" cy="50%" r="70%">
      <stop offset="0%" stop-color="#2244aa" stop-opacity="0.10"/>
      <stop offset="100%" stop-color="#0a0a0a" stop-opacity="1"/>
    </radialGradient>
    <filter id="glow-satariel" x="-50%" y="-50%" width="200%" height="200%">
      <feGaussianBlur in="SourceGraphic" stdDeviation="6" result="blur"/>
      <feMerge>
        <feMergeNode in="blur"/>
        <feMergeNode in="SourceGraphic"/>
      </feMerge>
    </filter>
  </defs>
  <rect width="512" height="512" fill="url(#bg-satariel)"/>
  <rect x="1" y="1" width="510" height="510" fill="none"
        stroke="#2244aa" stroke-opacity="0.10" stroke-width="2"/>
  <g filter="url(#glow-satariel)" opacity="0.42">
    <!-- projection lines and false-pattern nodes -->
    <line x1="336.0" y1="256.0" x2="416.0" y2="256.0" stroke="#2244aa" stroke-width="1" stroke-opacity="0.15" stroke-dasharray="4 4"/>
<circle cx="416.0" cy="256.0" r="3" fill="#2244aa" fill-opacity="0.15"/>
<line x1="325.3" y1="296.0" x2="420.5" y2="351.0" stroke="#2244aa" stroke-width="1" stroke-opacity="0.20" stroke-dasharray="4 4"/>
<circle cx="420.5" cy="351.0" r="3" fill="#2244aa" fill-opacity="0.20"/>
<line x1="296.0" y1="325.3" x2="366.0" y2="446.5" stroke="#2244aa" stroke-width="1" stroke-opacity="0.25" stroke-dasharray="4 4"/>
<circle cx="366.0" cy="446.5" r="3" fill="#2244aa" fill-opacity="0.25"/>
<line x1="256.0" y1="336.0" x2="256.0" y2="416.0" stroke="#2244aa" stroke-width="1" stroke-opacity="0.30" stroke-dasharray="4 4"/>
<circle cx="256.0" cy="416.0" r="3" fill="#2244aa" fill-opacity="0.30"/>
<line x1="216.0" y1="325.3" x2="161.0" y2="420.5" stroke="#2244aa" stroke-width="1" stroke-opacity="0.15" stroke-dasharray="4 4"/>
<circle cx="161.0" cy="420.5" r="3" fill="#2244aa" fill-opacity="0.15"/>
<line x1="186.7" y1="296.0" x2="65.5" y2="366.0" stroke="#2244aa" stroke-width="1" stroke-opacity="0.20" stroke-dasharray="4 4"/>
<circle cx="65.5" cy="366.0" r="3" fill="#2244aa" fill-opacity="0.20"/>
<line x1="176.0" y1="256.0" x2="96.0" y2="256.0" stroke="#2244aa" stroke-width="1" stroke-opacity="0.25" stroke-dasharray="4 4"/>
<circle cx="96.0" cy="256.0" r="3" fill="#2244aa" fill-opacity="0.25"/>
<line x1="186.7" y1="216.0" x2="91.5" y2="161.0" stroke="#2244aa" stroke-width="1" stroke-opacity="0.30" stroke-dasharray="4 4"/>
<circle cx="91.5" cy="161.0" r="3" fill="#2244aa" fill-opacity="0.30"/>
<line x1="216.0" y1="186.7" x2="146.0" y2="65.5" stroke="#2244aa" stroke-width="1" stroke-opacity="0.15" stroke-dasharray="4 4"/>
<circle cx="146.0" cy="65.5" r="3" fill="#2244aa" fill-opacity="0.15"/>
<line x1="256.0" y1="176.0" x2="256.0" y2="96.0" stroke="#2244aa" stroke-width="1" stroke-opacity="0.20" stroke-dasharray="4 4"/>
<circle cx="256.0" cy="96.0" r="3" fill="#2244aa" fill-opacity="0.20"/>
<line x1="296.0" y1="186.7" x2="351.0" y2="91.5" stroke="#2244aa" stroke-width="1" stroke-opacity="0.25" stroke-dasharray="4 4"/>
<circle cx="351.0" cy="91.5" r="3" fill="#2244aa" fill-opacity="0.25"/>
<line x1="325.3" y1="216.0" x2="446.5" y2="146.0" stroke="#2244aa" stroke-width="1" stroke-opacity="0.30" stroke-dasharray="4 4"/>
<circle cx="446.5" cy="146.0" r="3" fill="#2244aa" fill-opacity="0.30"/>
<line x1="416.0" y1="256.0" x2="256.0" y2="416.0" stroke="#2244aa" stroke-width="0.8" stroke-opacity="0.10" stroke-dasharray="2 6"/>
<line x1="420.5" y1="351.0" x2="65.5" y2="366.0" stroke="#2244aa" stroke-width="0.8" stroke-opacity="0.10" stroke-dasharray="2 6"/>
<line x1="366.0" y1="446.5" x2="91.5" y2="161.0" stroke="#2244aa" stroke-width="0.8" stroke-opacity="0.10" stroke-dasharray="2 6"/>
<line x1="161.0" y1="420.5" x2="256.0" y2="96.0" stroke="#2244aa" stroke-width="0.8" stroke-opacity="0.10" stroke-dasharray="2 6"/>
<line x1="96.0" y1="256.0" x2="446.5" y2="146.0" stroke="#2244aa" stroke-width="0.8" stroke-opacity="0.10" stroke-dasharray="2 6"/>
<line x1="146.0" y1="65.5" x2="351.0" y2="91.5" stroke="#2244aa" stroke-width="0.8" stroke-opacity="0.10" stroke-dasharray="2 6"/>
    <!-- outer eye shape -->
    <path d="M176,256 Q256,180 336,256 Q256,332 176,256 Z"
          fill="#2244aa" fill-opacity="0.06" stroke="#2244aa" stroke-width="2.5"/>
    <!-- iris -->
    <circle cx="256" cy="256" r="40" fill="#2244aa" fill-opacity="0.10"
            stroke="#2244aa" stroke-width="2"/>
    <!-- pupil -->
    <circle cx="256" cy="256" r="16" fill="#2244aa" fill-opacity="0.25"/>
    <!-- glint -->
    <circle cx="248" cy="248" r="4" fill="#2244aa" fill-opacity="0.5"/>
  </g>
</svg>
