<svg viewBox="0 0 200 250" xmlns="http://www.w3.org/2000/svg">
<defs>
  <!-- Skin gradients -->
  <radialGradient id="skin-light" cx="40%" cy="35%">
    <stop offset="0%" stop-color="#e8c8a0"/>
    <stop offset="60%" stop-color="#d4b088"/>
    <stop offset="100%" stop-color="#b89068"/>
  </radialGradient>
  <radialGradient id="skin-med" cx="40%" cy="35%">
    <stop offset="0%" stop-color="#d4b088"/>
    <stop offset="60%" stop-color="#c8a27a"/>
    <stop offset="100%" stop-color="#a88960"/>
  </radialGradient>
  <radialGradient id="skin-dark" cx="40%" cy="35%">
    <stop offset="0%" stop-color="#c0a070"/>
    <stop offset="60%" stop-color="#a88960"/>
    <stop offset="100%" stop-color="#886840"/>
  </radialGradient>
  <!-- Rim light (amber from right) -->
  <linearGradient id="rim-r" x1="0%" y1="0%" x2="100%" y2="0%">
    <stop offset="0%" stop-color="#ffb000" stop-opacity="0"/>
    <stop offset="70%" stop-color="#ffb000" stop-opacity="0"/>
    <stop offset="100%" stop-color="#ffb000" stop-opacity="0.25"/>
  </linearGradient>
  <!-- Ambient glow -->
  <radialGradient id="amb-glow" cx="55%" cy="35%">
    <stop offset="0%" stop-color="#ffb000" stop-opacity="0.08"/>
    <stop offset="100%" stop-color="#ffb000" stop-opacity="0"/>
  </radialGradient>
  <!-- Shadow overlay (right side darker) -->
  <linearGradient id="face-shadow" x1="0%" y1="0%" x2="100%" y2="20%">
    <stop offset="0%" stop-color="#000" stop-opacity="0"/>
    <stop offset="100%" stop-color="#000" stop-opacity="0.2"/>
  </linearGradient>
  <!-- Metallic gold gradient -->
  <linearGradient id="gold" x1="0%" y1="0%" x2="100%" y2="100%">
    <stop offset="0%" stop-color="#ffd700"/>
    <stop offset="50%" stop-color="#ffb000"/>
    <stop offset="100%" stop-color="#cc8800"/>
  </linearGradient>
  <!-- Metallic silver -->
  <linearGradient id="silver" x1="0%" y1="0%" x2="100%" y2="100%">
    <stop offset="0%" stop-color="#ccc"/>
    <stop offset="50%" stop-color="#aaa"/>
    <stop offset="100%" stop-color="#888"/>
  </linearGradient>
  <!-- Filters -->
  <filter id="glow-amb" x="-50%" y="-50%" width="200%" height="200%">
    <feGaussianBlur in="SourceGraphic" stdDeviation="8"/>
  </filter>
  <filter id="glow-sm" x="-30%" y="-30%" width="160%" height="160%">
    <feGaussianBlur in="SourceGraphic" stdDeviation="3"/>
  </filter>
  <filter id="soft" x="-10%" y="-10%" width="120%" height="120%">
    <feGaussianBlur in="SourceGraphic" stdDeviation="1.5"/>
  </filter>
</defs>

<defs>
  <radialGradient id="bg-g" cx="52%" cy="33%">
    <stop offset="0%" stop-color="#1a1200"/>
    <stop offset="100%" stop-color="#080800"/>
  </radialGradient>
</defs>
<rect x="0.0" y="0.0" width="200.0" height="250.0" fill="url(#bg-g)"/>
<circle cx="105.0" cy="85.0" r="65.0" fill="#ffb000" opacity="0.04" filter="url(#glow-amb)"/>
<path d="M20,250 Q20,190 55,178 Q100,166 145,178 Q180,190 180,250 Z" fill="#2a1a2a"/>
<path d="M90,128 L90,168 Q100,174 110,168 L110,128 Z" fill="url(#skin-med)"/>
<path d="M55,185 Q50,210 55,240" fill="none" stroke="#000" stroke-width="1" opacity="0.1"/>
<path d="M75,178 Q72,200 75,230" fill="none" stroke="#000" stroke-width="1" opacity="0.1"/>
<path d="M125,178 Q128,200 125,230" fill="none" stroke="#000" stroke-width="1" opacity="0.1"/>
<path d="M145,185 Q150,210 145,240" fill="none" stroke="#000" stroke-width="1" opacity="0.1"/>
<path d="M120,172 Q145,178 180,190 L180,250 L120,250 Z" fill="#fff" opacity="0.03"/>
<path d="M85,168 L100,195 L115,168" fill="none" stroke="#d4a017" stroke-width="0.8" opacity="0.5"/>
<circle cx="100.0" cy="175.0" r="2.0" fill="#d4a017" opacity="0.4"/>
<path d="M55,178 Q100,166 145,178" fill="none" stroke="#d4a017" stroke-width="0.6" opacity="0.35"/>
<path d="M67,82 Q65,55 100,48 Q135,55 133,82 Q130,105 115,118 Q100,125 85,118 Q70,105 67,82 Z" fill="url(#skin-light)"/>
<path d="M110,52 Q135,58 133,82 Q130,105 115,118 Q105,122 105,80 Z" fill="#000" opacity="0.08"/>
<ellipse cx="85.0" cy="92.0" rx="10.0" ry="6.0" fill="#e8c8a0" opacity="0.12"/>
<ellipse cx="100.0" cy="123.0" rx="12.0" ry="4.0" fill="#000" opacity="0.1"/>
<path d="M99,78 Q97,90 96,97 Q100,100 104,97 Q103,90 101,78" fill="none" stroke="#b89060" stroke-width="0.6" opacity="0.35"/>
<ellipse cx="97.0" cy="98.0" rx="2.0" ry="1.2" fill="#a07848" opacity="0.25"/>
<ellipse cx="103.0" cy="98.0" rx="2.0" ry="1.2" fill="#a07848" opacity="0.25"/>
<path d="M102,82 Q105,90 105,96" fill="none" stroke="#000" stroke-width="0.5" opacity="0.08"/>
<path d="M62,80 Q60,45 100,38 Q140,45 138,80 Q134,48 100,44 Q66,48 62,80 Z" fill="#3a2a3a"/>
<path d="M85,42 Q90,50 88,62" fill="none" stroke="#8a6a8a" stroke-width="0.5" opacity="0.2"/>
<path d="M108,40 Q112,52 110,65" fill="none" stroke="#8a6a8a" stroke-width="0.5" opacity="0.2"/>
<path d="M64,78 Q66,50 100,44 Q134,50 136,78" fill="none" stroke="#8a6a8a" stroke-width="0.6" opacity="0.3"/>
<ellipse cx="88.0" cy="83.0" rx="9.0" ry="5.5" fill="#a07848" opacity="0.12"/>
<ellipse cx="88.0" cy="83.0" rx="6.5" ry="3.8" fill="#f0e8d8" opacity="0.92"/>
<circle cx="87.5" cy="83.0" r="3.2" fill="#5a4a30"/>
<circle cx="87.5" cy="83.0" r="1.6" fill="#0a0500"/>
<path d="M81,82.5 Q88,78 95,82.5" fill="none" stroke="#5a3a1a" stroke-width="1.2"/>
<path d="M82,84.5 Q88,87 94,84.5" fill="none" stroke="#8a6a4a" stroke-width="0.5" opacity="0.4"/>
<path d="M84,80.0 Q83.7,78.0 83.5,78" fill="none" stroke="#3a2a0a" stroke-width="0.4" opacity="0.5"/>
<path d="M87,79.5 Q86.7,77.5 86.5,77" fill="none" stroke="#3a2a0a" stroke-width="0.4" opacity="0.5"/>
<path d="M90,80.0 Q89.7,78.0 89.5,78" fill="none" stroke="#3a2a0a" stroke-width="0.4" opacity="0.5"/>
<path d="M82,76 Q88,73 94,75.5" fill="none" stroke="#5a4a2a" stroke-width="1.2" opacity="0.7"/>
<ellipse cx="112.0" cy="83.0" rx="9.0" ry="5.5" fill="#a07848" opacity="0.12"/>
<ellipse cx="112.0" cy="83.0" rx="6.5" ry="3.8" fill="#f0e8d8" opacity="0.92"/>
<circle cx="112.5" cy="83.0" r="3.2" fill="#5a4a30"/>
<circle cx="112.5" cy="83.0" r="1.6" fill="#0a0500"/>
<path d="M105,82.5 Q112,78 119,82.5" fill="none" stroke="#5a3a1a" stroke-width="1.2"/>
<path d="M106,84.5 Q112,87 118,84.5" fill="none" stroke="#8a6a4a" stroke-width="0.5" opacity="0.4"/>
<path d="M108,80.0 Q108.3,78.0 108.5,78" fill="none" stroke="#3a2a0a" stroke-width="0.4" opacity="0.5"/>
<path d="M111,79.5 Q111.3,77.5 111.5,77" fill="none" stroke="#3a2a0a" stroke-width="0.4" opacity="0.5"/>
<path d="M114,80.0 Q114.3,78.0 114.5,78" fill="none" stroke="#3a2a0a" stroke-width="0.4" opacity="0.5"/>
<path d="M106,76 Q112,73 118,75.5" fill="none" stroke="#5a4a2a" stroke-width="1.2" opacity="0.7"/>
<path d="M93,108 Q97,106 100,107.5 Q103,106 107,108" fill="#a07055" opacity="0.5" stroke="#905a45" stroke-width="0.3"/>
<path d="M93,108 Q100,112 107,108" fill="#b08068" opacity="0.35" stroke="#905a45" stroke-width="0.2"/>
<path d="M94,108 Q100,109.5 106,108" fill="none" stroke="#7a4a35" stroke-width="0.6" opacity="0.5"/>
<path d="M50,208 Q62,192 78,198" fill="none" stroke="#d4b088" stroke-width="4.5" opacity="0.65" stroke-linecap="round"/>
<path d="M150,208 Q138,192 122,198" fill="none" stroke="#d4b088" stroke-width="4.5" opacity="0.65" stroke-linecap="round"/>
<circle cx="100.0" cy="202.0" r="15.0" fill="#d4a017" opacity="0.06" filter="url(#glow-sm)"/>
<circle cx="100.0" cy="202.0" r="6.0" fill="#d4a017" opacity="0.1"/>
<path d="M128,55 Q135,70 133,85 Q130,100 118,118" fill="none" stroke="#ffb000" stroke-width="1.5" opacity="0.15" stroke-linecap="round"/>
<path d="M125,168 Q145,175 165,190" fill="none" stroke="#ffb000" stroke-width="2" opacity="0.08" stroke-linecap="round"/>
</svg>
