<svg viewBox="0 0 200 250" xmlns="http://www.w3.org/2000/svg">
<defs>
  <!-- Amber rim light -->
  <linearGradient id="rim-r" x1="0%" y1="0%" x2="100%" y2="0%">
    <stop offset="0%" stop-color="#ffb000" stop-opacity="0"/>
    <stop offset="70%" stop-color="#ffb000" stop-opacity="0"/>
    <stop offset="100%" stop-color="#ffb000" stop-opacity="0.25"/>
  </linearGradient>
  <!-- Metallic gold -->
  <linearGradient id="gold" x1="0%" y1="0%" x2="100%" y2="100%">
    <stop offset="0%" stop-color="#ffd700"/>
    <stop offset="50%" stop-color="#ffb000"/>
    <stop offset="100%" stop-color="#cc8800"/>
  </linearGradient>
  <!-- Metallic silver -->
  <linearGradient id="silver" x1="0%" y1="0%" x2="100%" y2="100%">
    <stop offset="0%" stop-color="#ccc"/>
    <stop offset="50%" stop-color="#aaa"/>
    <stop offset="100%" stop-color="#888"/>
  </linearGradient>
  <!-- Filters -->
  <filter id="glow-amb" x="-50%" y="-50%" width="200%" height="200%">
    <feGaussianBlur in="SourceGraphic" stdDeviation="8"/>
  </filter>
  <filter id="glow-sm" x="-30%" y="-30%" width="160%" height="160%">
    <feGaussianBlur in="SourceGraphic" stdDeviation="3"/>
  </filter>
  <filter id="glow-md" x="-40%" y="-40%" width="180%" height="180%">
    <feGaussianBlur in="SourceGraphic" stdDeviation="5"/>
  </filter>
  <filter id="soft" x="-10%" y="-10%" width="120%" height="120%">
    <feGaussianBlur in="SourceGraphic" stdDeviation="1.5"/>
  </filter>
</defs>

<defs>
  <radialGradient id="bg-g" cx="50%" cy="40%">
    <stop offset="0%" stop-color="#1a1600"/>
    <stop offset="100%" stop-color="#0a0a0a"/>
  </radialGradient>
</defs>
<rect x="0.0" y="0.0" width="200.0" height="250.0" fill="url(#bg-g)"/>
<line x1="100.0" y1="125.0" x2="240.0" y2="125.0" stroke-linecap="round" stroke="#ffcc00" stroke-width="0.4" opacity="0.060"/>
<line x1="100.0" y1="125.0" x2="235.2" y2="161.2" stroke-linecap="round" stroke="#ffcc00" stroke-width="0.7" opacity="0.075"/>
<line x1="100.0" y1="125.0" x2="221.2" y2="195.0" stroke-linecap="round" stroke="#ffcc00" stroke-width="1.0" opacity="0.090"/>
<line x1="100.0" y1="125.0" x2="199.0" y2="224.0" stroke-linecap="round" stroke="#ffcc00" stroke-width="0.4" opacity="0.105"/>
<line x1="100.0" y1="125.0" x2="170.0" y2="246.2" stroke-linecap="round" stroke="#ffcc00" stroke-width="0.7" opacity="0.060"/>
<line x1="100.0" y1="125.0" x2="136.2" y2="260.2" stroke-linecap="round" stroke="#ffcc00" stroke-width="1.0" opacity="0.075"/>
<line x1="100.0" y1="125.0" x2="100.0" y2="265.0" stroke-linecap="round" stroke="#ffcc00" stroke-width="0.4" opacity="0.090"/>
<line x1="100.0" y1="125.0" x2="63.8" y2="260.2" stroke-linecap="round" stroke="#ffcc00" stroke-width="0.7" opacity="0.105"/>
<line x1="100.0" y1="125.0" x2="30.0" y2="246.2" stroke-linecap="round" stroke="#ffcc00" stroke-width="1.0" opacity="0.060"/>
<line x1="100.0" y1="125.0" x2="1.0" y2="224.0" stroke-linecap="round" stroke="#ffcc00" stroke-width="0.4" opacity="0.075"/>
<line x1="100.0" y1="125.0" x2="-21.2" y2="195.0" stroke-linecap="round" stroke="#ffcc00" stroke-width="0.7" opacity="0.090"/>
<line x1="100.0" y1="125.0" x2="-35.2" y2="161.2" stroke-linecap="round" stroke="#ffcc00" stroke-width="1.0" opacity="0.105"/>
<line x1="100.0" y1="125.0" x2="-40.0" y2="125.0" stroke-linecap="round" stroke="#ffcc00" stroke-width="0.4" opacity="0.060"/>
<line x1="100.0" y1="125.0" x2="-35.2" y2="88.8" stroke-linecap="round" stroke="#ffcc00" stroke-width="0.7" opacity="0.075"/>
<line x1="100.0" y1="125.0" x2="-21.2" y2="55.0" stroke-linecap="round" stroke="#ffcc00" stroke-width="1.0" opacity="0.090"/>
<line x1="100.0" y1="125.0" x2="1.0" y2="26.0" stroke-linecap="round" stroke="#ffcc00" stroke-width="0.4" opacity="0.105"/>
<line x1="100.0" y1="125.0" x2="30.0" y2="3.8" stroke-linecap="round" stroke="#ffcc00" stroke-width="0.7" opacity="0.060"/>
<line x1="100.0" y1="125.0" x2="63.8" y2="-10.2" stroke-linecap="round" stroke="#ffcc00" stroke-width="1.0" opacity="0.075"/>
<line x1="100.0" y1="125.0" x2="100.0" y2="-15.0" stroke-linecap="round" stroke="#ffcc00" stroke-width="0.4" opacity="0.090"/>
<line x1="100.0" y1="125.0" x2="136.2" y2="-10.2" stroke-linecap="round" stroke="#ffcc00" stroke-width="0.7" opacity="0.105"/>
<line x1="100.0" y1="125.0" x2="170.0" y2="3.8" stroke-linecap="round" stroke="#ffcc00" stroke-width="1.0" opacity="0.060"/>
<line x1="100.0" y1="125.0" x2="199.0" y2="26.0" stroke-linecap="round" stroke="#ffcc00" stroke-width="0.4" opacity="0.075"/>
<line x1="100.0" y1="125.0" x2="221.2" y2="55.0" stroke-linecap="round" stroke="#ffcc00" stroke-width="0.7" opacity="0.090"/>
<line x1="100.0" y1="125.0" x2="235.2" y2="88.8" stroke-linecap="round" stroke="#ffcc00" stroke-width="1.0" opacity="0.105"/>
<circle cx="100.0" cy="125.0" r="100.0" fill="#ffcc00" opacity="0.020" filter="url(#glow-amb)"/>
<circle cx="100.0" cy="125.0" r="75.0" fill="#ffcc00" opacity="0.030" filter="url(#glow-amb)"/>
<circle cx="100.0" cy="125.0" r="50.0" fill="#ffcc00" opacity="0.040" filter="url(#glow-amb)"/>
<circle cx="100.0" cy="125.0" r="30.0" fill="#ffcc00" opacity="0.060" filter="url(#glow-amb)"/>
<circle cx="100.0" cy="125.0" r="15.0" fill="#ffcc00" opacity="0.080" filter="url(#glow-amb)"/>
<circle cx="100.0" cy="125.0" r="8.0" fill="#ffcc00" opacity="0.3"/>
<circle cx="100.0" cy="125.0" r="4.0" fill="#ffffff" opacity="0.5"/>
<circle cx="100.0" cy="125.0" r="20.0" fill="#ffcc00" opacity="0.06" filter="url(#glow-sm)"/>
<circle cx="74.0" cy="93.0" r="0.5" fill="#ffcc00" opacity="0.17"/>
<circle cx="59.0" cy="220.0" r="1.1" fill="#ffcc00" opacity="0.05"/>
<circle cx="84.0" cy="131.0" r="1.2" fill="#ffcc00" opacity="0.22"/>
<circle cx="166.0" cy="70.0" r="0.4" fill="#ffcc00" opacity="0.08"/>
<circle cx="171.0" cy="179.0" r="0.8" fill="#ffcc00" opacity="0.07"/>
<circle cx="81.0" cy="17.0" r="1.1" fill="#ffcc00" opacity="0.05"/>
<circle cx="137.0" cy="54.0" r="1.0" fill="#ffcc00" opacity="0.09"/>
<circle cx="58.0" cy="139.0" r="1.2" fill="#ffcc00" opacity="0.16"/>
<circle cx="109.0" cy="56.0" r="0.6" fill="#ffcc00" opacity="0.11"/>
<circle cx="40.0" cy="32.0" r="0.8" fill="#ffcc00" opacity="0.05"/>
<circle cx="76.0" cy="146.0" r="0.7" fill="#ffcc00" opacity="0.19"/>
<circle cx="67.0" cy="59.0" r="0.4" fill="#ffcc00" opacity="0.10"/>
<circle cx="61.0" cy="188.0" r="0.8" fill="#ffcc00" opacity="0.10"/>
<circle cx="122.0" cy="162.0" r="0.9" fill="#ffcc00" opacity="0.16"/>
<circle cx="29.0" cy="35.0" r="1.1" fill="#ffcc00" opacity="0.05"/>
<circle cx="64.0" cy="200.0" r="0.6" fill="#ffcc00" opacity="0.08"/>
<circle cx="32.0" cy="34.0" r="0.8" fill="#ffcc00" opacity="0.05"/>
<circle cx="30.0" cy="210.0" r="1.0" fill="#ffcc00" opacity="0.05"/>
<circle cx="37.0" cy="79.0" r="0.7" fill="#ffcc00" opacity="0.09"/>
<circle cx="151.0" cy="41.0" r="0.6" fill="#ffcc00" opacity="0.05"/>
<rect x="0.0" y="0.0" width="200.0" height="250.0" fill="none" stroke="#ffcc00" stroke-width="1.5" opacity="0.08"/>
</svg>
