<svg viewBox="0 0 200 250" xmlns="http://www.w3.org/2000/svg">
<defs>
  <!-- Amber rim light -->
  <linearGradient id="rim-r" x1="0%" y1="0%" x2="100%" y2="0%">
    <stop offset="0%" stop-color="#ffb000" stop-opacity="0"/>
    <stop offset="70%" stop-color="#ffb000" stop-opacity="0"/>
    <stop offset="100%" stop-color="#ffb000" stop-opacity="0.25"/>
  </linearGradient>
  <!-- Metallic gold -->
  <linearGradient id="gold" x1="0%" y1="0%" x2="100%" y2="100%">
    <stop offset="0%" stop-color="#ffd700"/>
    <stop offset="50%" stop-color="#ffb000"/>
    <stop offset="100%" stop-color="#cc8800"/>
  </linearGradient>
  <!-- Metallic silver -->
  <linearGradient id="silver" x1="0%" y1="0%" x2="100%" y2="100%">
    <stop offset="0%" stop-color="#ccc"/>
    <stop offset="50%" stop-color="#aaa"/>
    <stop offset="100%" stop-color="#888"/>
  </linearGradient>
  <!-- Filters -->
  <filter id="glow-amb" x="-50%" y="-50%" width="200%" height="200%">
    <feGaussianBlur in="SourceGraphic" stdDeviation="8"/>
  </filter>
  <filter id="glow-sm" x="-30%" y="-30%" width="160%" height="160%">
    <feGaussianBlur in="SourceGraphic" stdDeviation="3"/>
  </filter>
  <filter id="glow-md" x="-40%" y="-40%" width="180%" height="180%">
    <feGaussianBlur in="SourceGraphic" stdDeviation="5"/>
  </filter>
  <filter id="soft" x="-10%" y="-10%" width="120%" height="120%">
    <feGaussianBlur in="SourceGraphic" stdDeviation="1.5"/>
  </filter>
</defs>

<defs>
  <radialGradient id="bg-g" cx="50%" cy="20%">
    <stop offset="0%" stop-color="#0a1030"/>
    <stop offset="100%" stop-color="#0a0a0a"/>
  </radialGradient>
</defs>
<rect x="0.0" y="0.0" width="200.0" height="250.0" fill="url(#bg-g)"/>
<path d="M0,0 Q50,5 100,40 Q150,5 200,0 L200,20 Q150,25 100,55 Q50,25 0,20 Z" fill="#1a2244" stroke="#2244aa" stroke-width="0.5" opacity="0.6"/>
<path d="M30,0 Q65,15 100,45 Q135,15 170,0" fill="none" stroke="#2244aa" stroke-width="0.8" opacity="0.3"/>
<path d="M10,0 Q55,20 100,50 Q145,20 190,0" fill="none" stroke="#2244aa" stroke-width="0.5" opacity="0.2"/>
<rect x="23.0" y="40.0" width="24.0" height="195.0" fill="#1a1a30" stroke="#2244aa" stroke-width="0.6" opacity="0.7"/>
<line x1="27.0" y1="50.0" x2="27.0" y2="230.0" stroke-linecap="round" stroke="#2244aa" stroke-width="0.3" opacity="0.08"/>
<line x1="32.0" y1="50.0" x2="32.0" y2="230.0" stroke-linecap="round" stroke="#2244aa" stroke-width="0.3" opacity="0.08"/>
<line x1="37.0" y1="50.0" x2="37.0" y2="230.0" stroke-linecap="round" stroke="#2244aa" stroke-width="0.3" opacity="0.08"/>
<line x1="42.0" y1="50.0" x2="42.0" y2="230.0" stroke-linecap="round" stroke="#2244aa" stroke-width="0.3" opacity="0.08"/>
<path d="M19,45 L23,40 L47,40 L51,45 Z" fill="#1a1a30" stroke="#2244aa" stroke-width="0.4" opacity="0.5"/>
<rect x="20.0" y="230.0" width="30.0" height="8.0" fill="#1a1a30" stroke="#2244aa" stroke-width="0.3" opacity="0.5"/>
<rect x="153.0" y="40.0" width="24.0" height="195.0" fill="#1a1a30" stroke="#2244aa" stroke-width="0.6" opacity="0.7"/>
<line x1="157.0" y1="50.0" x2="157.0" y2="230.0" stroke-linecap="round" stroke="#2244aa" stroke-width="0.3" opacity="0.08"/>
<line x1="162.0" y1="50.0" x2="162.0" y2="230.0" stroke-linecap="round" stroke="#2244aa" stroke-width="0.3" opacity="0.08"/>
<line x1="167.0" y1="50.0" x2="167.0" y2="230.0" stroke-linecap="round" stroke="#2244aa" stroke-width="0.3" opacity="0.08"/>
<line x1="172.0" y1="50.0" x2="172.0" y2="230.0" stroke-linecap="round" stroke="#2244aa" stroke-width="0.3" opacity="0.08"/>
<path d="M149,45 L153,40 L177,40 L181,45 Z" fill="#1a1a30" stroke="#2244aa" stroke-width="0.4" opacity="0.5"/>
<rect x="150.0" y="230.0" width="30.0" height="8.0" fill="#1a1a30" stroke="#2244aa" stroke-width="0.3" opacity="0.5"/>
<rect x="62.0" y="50.0" width="16.0" height="185.0" fill="#121230" stroke="#2244aa" stroke-width="0.3" opacity="0.5"/>
<rect x="122.0" y="50.0" width="16.0" height="185.0" fill="#121230" stroke="#2244aa" stroke-width="0.3" opacity="0.5"/>
<path d="M0,235 L200,235 L200,250 L0,250 Z" fill="#0e0e20" opacity="0.6"/>
<line x1="0.0" y1="235.0" x2="200.0" y2="235.0" stroke-linecap="round" stroke="#2244aa" stroke-width="0.5" opacity="0.15"/>
<line x1="0.0" y1="240.7" x2="200.0" y2="240.7" stroke-linecap="round" stroke="#2244aa" stroke-width="0.5" opacity="0.13"/>
<line x1="0.0" y1="244.2" x2="200.0" y2="244.2" stroke-linecap="round" stroke="#2244aa" stroke-width="0.5" opacity="0.11"/>
<line x1="0.0" y1="247.3" x2="200.0" y2="247.3" stroke-linecap="round" stroke="#2244aa" stroke-width="0.5" opacity="0.09"/>
<line x1="0.0" y1="250.0" x2="200.0" y2="250.0" stroke-linecap="round" stroke="#2244aa" stroke-width="0.5" opacity="0.07"/>
<line x1="0.0" y1="235.0" x2="70.0" y2="250.0" stroke-linecap="round" stroke="#2244aa" stroke-width="0.3" opacity="0.08"/>
<line x1="33.3" y1="235.0" x2="80.0" y2="250.0" stroke-linecap="round" stroke="#2244aa" stroke-width="0.3" opacity="0.08"/>
<line x1="66.7" y1="235.0" x2="90.0" y2="250.0" stroke-linecap="round" stroke="#2244aa" stroke-width="0.3" opacity="0.08"/>
<line x1="100.0" y1="235.0" x2="100.0" y2="250.0" stroke-linecap="round" stroke="#2244aa" stroke-width="0.3" opacity="0.08"/>
<line x1="133.3" y1="235.0" x2="110.0" y2="250.0" stroke-linecap="round" stroke="#2244aa" stroke-width="0.3" opacity="0.08"/>
<line x1="166.7" y1="235.0" x2="120.0" y2="250.0" stroke-linecap="round" stroke="#2244aa" stroke-width="0.3" opacity="0.08"/>
<line x1="200.0" y1="235.0" x2="130.0" y2="250.0" stroke-linecap="round" stroke="#2244aa" stroke-width="0.3" opacity="0.08"/>
<circle cx="100.0" cy="80.0" r="22.0" fill="#0a1030" stroke="#2244aa" stroke-width="1" opacity="0.5"/>
<line x1="110.0" y1="80.0" x2="120.0" y2="80.0" stroke-linecap="round" stroke="#4466cc" stroke-width="0.5" opacity="0.2"/>
<line x1="107.1" y1="87.1" x2="114.1" y2="94.1" stroke-linecap="round" stroke="#4466cc" stroke-width="0.5" opacity="0.2"/>
<line x1="100.0" y1="90.0" x2="100.0" y2="100.0" stroke-linecap="round" stroke="#4466cc" stroke-width="0.5" opacity="0.2"/>
<line x1="92.9" y1="87.1" x2="85.9" y2="94.1" stroke-linecap="round" stroke="#4466cc" stroke-width="0.5" opacity="0.2"/>
<line x1="90.0" y1="80.0" x2="80.0" y2="80.0" stroke-linecap="round" stroke="#4466cc" stroke-width="0.5" opacity="0.2"/>
<line x1="92.9" y1="72.9" x2="85.9" y2="65.9" stroke-linecap="round" stroke="#4466cc" stroke-width="0.5" opacity="0.2"/>
<line x1="100.0" y1="70.0" x2="100.0" y2="60.0" stroke-linecap="round" stroke="#4466cc" stroke-width="0.5" opacity="0.2"/>
<line x1="107.1" y1="72.9" x2="114.1" y2="65.9" stroke-linecap="round" stroke="#4466cc" stroke-width="0.5" opacity="0.2"/>
<circle cx="100.0" cy="80.0" r="6.0" fill="#4466cc" opacity="0.12"/>
<circle cx="100.0" cy="80.0" r="12.0" fill="#4466cc" opacity="0.04" filter="url(#glow-sm)"/>
<path d="M88,95 L80,235 L120,235 L112,95 Z" fill="#2244aa" opacity="0.015"/>
<rect x="0.0" y="0.0" width="200.0" height="250.0" fill="none" stroke="#2244aa" stroke-width="1.5" opacity="0.12"/>
</svg>
