<svg viewBox="0 0 200 250" xmlns="http://www.w3.org/2000/svg">
<defs>
  <!-- Amber rim light -->
  <linearGradient id="rim-r" x1="0%" y1="0%" x2="100%" y2="0%">
    <stop offset="0%" stop-color="#ffb000" stop-opacity="0"/>
    <stop offset="70%" stop-color="#ffb000" stop-opacity="0"/>
    <stop offset="100%" stop-color="#ffb000" stop-opacity="0.25"/>
  </linearGradient>
  <!-- Metallic gold -->
  <linearGradient id="gold" x1="0%" y1="0%" x2="100%" y2="100%">
    <stop offset="0%" stop-color="#ffd700"/>
    <stop offset="50%" stop-color="#ffb000"/>
    <stop offset="100%" stop-color="#cc8800"/>
  </linearGradient>
  <!-- Metallic silver -->
  <linearGradient id="silver" x1="0%" y1="0%" x2="100%" y2="100%">
    <stop offset="0%" stop-color="#ccc"/>
    <stop offset="50%" stop-color="#aaa"/>
    <stop offset="100%" stop-color="#888"/>
  </linearGradient>
  <!-- Filters -->
  <filter id="glow-amb" x="-50%" y="-50%" width="200%" height="200%">
    <feGaussianBlur in="SourceGraphic" stdDeviation="8"/>
  </filter>
  <filter id="glow-sm" x="-30%" y="-30%" width="160%" height="160%">
    <feGaussianBlur in="SourceGraphic" stdDeviation="3"/>
  </filter>
  <filter id="glow-md" x="-40%" y="-40%" width="180%" height="180%">
    <feGaussianBlur in="SourceGraphic" stdDeviation="5"/>
  </filter>
  <filter id="soft" x="-10%" y="-10%" width="120%" height="120%">
    <feGaussianBlur in="SourceGraphic" stdDeviation="1.5"/>
  </filter>
</defs>

<defs>
  <radialGradient id="bg-g" cx="50%" cy="50%">
    <stop offset="0%" stop-color="#0a1030"/>
    <stop offset="100%" stop-color="#0a0a0a"/>
  </radialGradient>
</defs>
<rect x="0.0" y="0.0" width="200.0" height="250.0" fill="url(#bg-g)"/>
<ellipse cx="60.0" cy="80.0" rx="45.0" ry="25.0" fill="#4466aa" opacity="0.040" filter="url(#glow-amb)"/>
<ellipse cx="140.0" cy="120.0" rx="35.0" ry="30.0" fill="#6644aa" opacity="0.035" filter="url(#glow-amb)"/>
<ellipse cx="90.0" cy="160.0" rx="50.0" ry="20.0" fill="#4466cc" opacity="0.030" filter="url(#glow-amb)"/>
<ellipse cx="110.0" cy="60.0" rx="30.0" ry="18.0" fill="#6688cc" opacity="0.040" filter="url(#glow-amb)"/>
<ellipse cx="50.0" cy="180.0" rx="40.0" ry="22.0" fill="#5555aa" opacity="0.025" filter="url(#glow-amb)"/>
<circle cx="106.0" cy="53.0" r="0.7" fill="#aabbee" opacity="0.27"/>
<circle cx="139.0" cy="201.0" r="1.1" fill="#9999dd" opacity="0.54"/>
<circle cx="139.0" cy="201.0" r="4.5" fill="#9999dd" opacity="0.03" filter="url(#glow-sm)"/>
<circle cx="39.0" cy="62.0" r="1.5" fill="#bbccff" opacity="0.25"/>
<circle cx="39.0" cy="62.0" r="6.0" fill="#bbccff" opacity="0.03" filter="url(#glow-sm)"/>
<circle cx="159.0" cy="49.0" r="0.8" fill="#9999dd" opacity="0.33"/>
<circle cx="40.0" cy="83.0" r="0.5" fill="#ccddff" opacity="0.39"/>
<circle cx="20.0" cy="44.0" r="1.4" fill="#bbccff" opacity="0.30"/>
<circle cx="20.0" cy="44.0" r="5.5" fill="#bbccff" opacity="0.03" filter="url(#glow-sm)"/>
<circle cx="61.0" cy="50.0" r="1.4" fill="#ffffff" opacity="0.60"/>
<circle cx="61.0" cy="50.0" r="5.6" fill="#ffffff" opacity="0.03" filter="url(#glow-sm)"/>
<circle cx="121.0" cy="205.0" r="0.9" fill="#9999dd" opacity="0.53"/>
<circle cx="136.0" cy="103.0" r="0.9" fill="#bbccff" opacity="0.23"/>
<circle cx="102.0" cy="8.0" r="0.5" fill="#ccddff" opacity="0.37"/>
<circle cx="188.0" cy="223.0" r="1.1" fill="#aabbee" opacity="0.55"/>
<circle cx="188.0" cy="223.0" r="4.3" fill="#aabbee" opacity="0.03" filter="url(#glow-sm)"/>
<circle cx="146.0" cy="137.0" r="0.4" fill="#bbccff" opacity="0.31"/>
<circle cx="116.0" cy="98.0" r="0.9" fill="#ccddff" opacity="0.54"/>
<circle cx="151.0" cy="88.0" r="1.0" fill="#bbccff" opacity="0.44"/>
<circle cx="151.0" cy="88.0" r="4.1" fill="#bbccff" opacity="0.03" filter="url(#glow-sm)"/>
<circle cx="93.0" cy="84.0" r="1.1" fill="#ffffff" opacity="0.41"/>
<circle cx="93.0" cy="84.0" r="4.5" fill="#ffffff" opacity="0.03" filter="url(#glow-sm)"/>
<circle cx="90.0" cy="110.0" r="0.9" fill="#9999dd" opacity="0.45"/>
<circle cx="62.0" cy="242.0" r="0.8" fill="#aabbee" opacity="0.34"/>
<circle cx="87.0" cy="66.0" r="0.9" fill="#ccddff" opacity="0.48"/>
<circle cx="25.0" cy="147.0" r="0.4" fill="#aabbee" opacity="0.32"/>
<circle cx="95.0" cy="148.0" r="1.4" fill="#bbccff" opacity="0.57"/>
<circle cx="95.0" cy="148.0" r="5.5" fill="#bbccff" opacity="0.03" filter="url(#glow-sm)"/>
<circle cx="9.0" cy="116.0" r="1.5" fill="#9999dd" opacity="0.56"/>
<circle cx="9.0" cy="116.0" r="6.0" fill="#9999dd" opacity="0.03" filter="url(#glow-sm)"/>
<circle cx="16.0" cy="192.0" r="0.9" fill="#9999dd" opacity="0.48"/>
<circle cx="81.0" cy="178.0" r="1.0" fill="#ccddff" opacity="0.31"/>
<circle cx="81.0" cy="178.0" r="4.2" fill="#ccddff" opacity="0.03" filter="url(#glow-sm)"/>
<circle cx="140.0" cy="230.0" r="1.0" fill="#ccddff" opacity="0.38"/>
<circle cx="195.0" cy="5.0" r="0.4" fill="#bbccff" opacity="0.33"/>
<circle cx="181.0" cy="104.0" r="1.4" fill="#9999dd" opacity="0.50"/>
<circle cx="181.0" cy="104.0" r="5.6" fill="#9999dd" opacity="0.03" filter="url(#glow-sm)"/>
<circle cx="140.0" cy="195.0" r="0.8" fill="#9999dd" opacity="0.48"/>
<circle cx="68.0" cy="180.0" r="1.3" fill="#ccddff" opacity="0.21"/>
<circle cx="68.0" cy="180.0" r="5.4" fill="#ccddff" opacity="0.03" filter="url(#glow-sm)"/>
<circle cx="85.0" cy="230.0" r="0.8" fill="#9999dd" opacity="0.35"/>
<circle cx="181.0" cy="167.0" r="0.8" fill="#ccddff" opacity="0.52"/>
<circle cx="158.0" cy="105.0" r="0.5" fill="#bbccff" opacity="0.28"/>
<circle cx="182.0" cy="82.0" r="0.9" fill="#ffffff" opacity="0.36"/>
<circle cx="193.0" cy="179.0" r="1.2" fill="#bbccff" opacity="0.55"/>
<circle cx="193.0" cy="179.0" r="4.9" fill="#bbccff" opacity="0.03" filter="url(#glow-sm)"/>
<circle cx="9.0" cy="216.0" r="0.7" fill="#aabbee" opacity="0.21"/>
<circle cx="193.0" cy="180.0" r="0.8" fill="#bbccff" opacity="0.47"/>
<circle cx="87.0" cy="120.0" r="1.4" fill="#bbccff" opacity="0.39"/>
<circle cx="87.0" cy="120.0" r="5.8" fill="#bbccff" opacity="0.03" filter="url(#glow-sm)"/>
<circle cx="57.0" cy="201.0" r="1.2" fill="#ccddff" opacity="0.27"/>
<circle cx="57.0" cy="201.0" r="5.0" fill="#ccddff" opacity="0.03" filter="url(#glow-sm)"/>
<circle cx="46.0" cy="192.0" r="0.7" fill="#aabbee" opacity="0.49"/>
<circle cx="34.0" cy="83.0" r="0.5" fill="#ccddff" opacity="0.57"/>
<circle cx="150.0" cy="146.0" r="1.0" fill="#ccddff" opacity="0.36"/>
<circle cx="150.0" cy="146.0" r="4.2" fill="#ccddff" opacity="0.03" filter="url(#glow-sm)"/>
<circle cx="58.0" cy="223.0" r="0.8" fill="#aabbee" opacity="0.52"/>
<circle cx="84.0" cy="140.0" r="0.6" fill="#aabbee" opacity="0.25"/>
<circle cx="106.0" cy="18.0" r="1.1" fill="#bbccff" opacity="0.53"/>
<circle cx="106.0" cy="18.0" r="4.4" fill="#bbccff" opacity="0.03" filter="url(#glow-sm)"/>
<circle cx="85.0" cy="18.0" r="0.5" fill="#9999dd" opacity="0.52"/>
<circle cx="120.0" cy="195.0" r="1.3" fill="#9999dd" opacity="0.47"/>
<circle cx="120.0" cy="195.0" r="5.0" fill="#9999dd" opacity="0.03" filter="url(#glow-sm)"/>
<circle cx="35.0" cy="61.0" r="0.4" fill="#bbccff" opacity="0.32"/>
<circle cx="80.0" cy="101.0" r="1.3" fill="#ccddff" opacity="0.56"/>
<circle cx="80.0" cy="101.0" r="5.1" fill="#ccddff" opacity="0.03" filter="url(#glow-sm)"/>
<circle cx="88.0" cy="214.0" r="0.4" fill="#ffffff" opacity="0.35"/>
<circle cx="122.0" cy="162.0" r="0.6" fill="#ccddff" opacity="0.33"/>
<circle cx="26.0" cy="100.0" r="1.1" fill="#ffffff" opacity="0.41"/>
<circle cx="26.0" cy="100.0" r="4.5" fill="#ffffff" opacity="0.03" filter="url(#glow-sm)"/>
<circle cx="100.0" cy="125.0" r="2.5" fill="#ffffff" opacity="0.6"/>
<circle cx="100.0" cy="125.0" r="7.0" fill="#6688cc" opacity="0.08" filter="url(#glow-sm)"/>
<circle cx="100.0" cy="125.0" r="18.0" fill="#6688cc" opacity="0.03" filter="url(#glow-amb)"/>
<line x1="100.0" y1="125.0" x2="114.5" y2="128.9" stroke-linecap="round" stroke="#bbccff" stroke-width="0.3" opacity="0.15"/>
<line x1="100.0" y1="125.0" x2="103.9" y2="139.5" stroke-linecap="round" stroke="#bbccff" stroke-width="0.3" opacity="0.15"/>
<line x1="100.0" y1="125.0" x2="89.4" y2="135.6" stroke-linecap="round" stroke="#bbccff" stroke-width="0.3" opacity="0.15"/>
<line x1="100.0" y1="125.0" x2="85.5" y2="121.1" stroke-linecap="round" stroke="#bbccff" stroke-width="0.3" opacity="0.15"/>
<line x1="100.0" y1="125.0" x2="96.1" y2="110.5" stroke-linecap="round" stroke="#bbccff" stroke-width="0.3" opacity="0.15"/>
<line x1="100.0" y1="125.0" x2="110.6" y2="114.4" stroke-linecap="round" stroke="#bbccff" stroke-width="0.3" opacity="0.15"/>
<path d="M40,100 Q70,90 90,110 Q110,130 140,120 Q160,110 170,130" fill="none" stroke="#6688cc" stroke-width="0.6" opacity="0.06"/>
<path d="M30,150 Q60,140 80,160 Q110,170 130,155 Q160,145 180,160" fill="none" stroke="#4466aa" stroke-width="0.5" opacity="0.05"/>
<rect x="0.0" y="0.0" width="200.0" height="250.0" fill="none" stroke="#6688cc" stroke-width="1.5" opacity="0.08"/>
</svg>
