<svg viewBox="0 0 200 250" xmlns="http://www.w3.org/2000/svg">
<defs>
  <!-- Amber rim light -->
  <linearGradient id="rim-r" x1="0%" y1="0%" x2="100%" y2="0%">
    <stop offset="0%" stop-color="#ffb000" stop-opacity="0"/>
    <stop offset="70%" stop-color="#ffb000" stop-opacity="0"/>
    <stop offset="100%" stop-color="#ffb000" stop-opacity="0.25"/>
  </linearGradient>
  <!-- Metallic gold -->
  <linearGradient id="gold" x1="0%" y1="0%" x2="100%" y2="100%">
    <stop offset="0%" stop-color="#ffd700"/>
    <stop offset="50%" stop-color="#ffb000"/>
    <stop offset="100%" stop-color="#cc8800"/>
  </linearGradient>
  <!-- Metallic silver -->
  <linearGradient id="silver" x1="0%" y1="0%" x2="100%" y2="100%">
    <stop offset="0%" stop-color="#ccc"/>
    <stop offset="50%" stop-color="#aaa"/>
    <stop offset="100%" stop-color="#888"/>
  </linearGradient>
  <!-- Filters -->
  <filter id="glow-amb" x="-50%" y="-50%" width="200%" height="200%">
    <feGaussianBlur in="SourceGraphic" stdDeviation="8"/>
  </filter>
  <filter id="glow-sm" x="-30%" y="-30%" width="160%" height="160%">
    <feGaussianBlur in="SourceGraphic" stdDeviation="3"/>
  </filter>
  <filter id="glow-md" x="-40%" y="-40%" width="180%" height="180%">
    <feGaussianBlur in="SourceGraphic" stdDeviation="5"/>
  </filter>
  <filter id="soft" x="-10%" y="-10%" width="120%" height="120%">
    <feGaussianBlur in="SourceGraphic" stdDeviation="1.5"/>
  </filter>
</defs>

<defs>
  <radialGradient id="bg-g" cx="50%" cy="40%">
    <stop offset="0%" stop-color="#0a1020"/>
    <stop offset="100%" stop-color="#0a0a0a"/>
  </radialGradient>
</defs>
<rect x="0.0" y="0.0" width="200.0" height="250.0" fill="url(#bg-g)"/>
<rect x="30.0" y="20.0" width="140.0" height="130.0" fill="#0a1428" stroke="#4488cc" stroke-width="0.8" opacity="0.7"/>
<path d="M32,22 L168,22 L168,70 L32,70 Z" fill="#0a1428" opacity="0.5"/>
<circle cx="50.0" cy="30.0" r="0.8" fill="#aabbdd" opacity="0.4"/>
<circle cx="80.0" cy="35.0" r="1.0" fill="#aabbdd" opacity="0.4"/>
<circle cx="120.0" cy="28.0" r="0.7" fill="#aabbdd" opacity="0.4"/>
<circle cx="145.0" cy="38.0" r="0.9" fill="#aabbdd" opacity="0.4"/>
<circle cx="60.0" cy="42.0" r="0.6" fill="#aabbdd" opacity="0.4"/>
<circle cx="135.0" cy="32.0" r="0.5" fill="#aabbdd" opacity="0.4"/>
<circle cx="100.0" cy="25.0" r="1.1" fill="#aabbdd" opacity="0.4"/>
<circle cx="155.0" cy="35.0" r="8.0" fill="#bbccee" opacity="0.15"/>
<circle cx="158.0" cy="33.0" r="7.0" fill="#0a1428" opacity="0.5"/>
<path d="M32,75 Q65,73 100,76 Q135,74 168,75" fill="none" stroke="#4488cc" stroke-width="0.6" opacity="0.150"/>
<path d="M32,83 Q65,81 100,84 Q135,82 168,83" fill="none" stroke="#4488cc" stroke-width="0.6" opacity="0.135"/>
<path d="M32,91 Q65,89 100,92 Q135,90 168,91" fill="none" stroke="#4488cc" stroke-width="0.6" opacity="0.120"/>
<path d="M32,99 Q65,97 100,100 Q135,98 168,99" fill="none" stroke="#4488cc" stroke-width="0.6" opacity="0.105"/>
<path d="M32,107 Q65,105 100,108 Q135,106 168,107" fill="none" stroke="#4488cc" stroke-width="0.6" opacity="0.090"/>
<path d="M32,115 Q65,113 100,116 Q135,114 168,115" fill="none" stroke="#4488cc" stroke-width="0.6" opacity="0.075"/>
<path d="M32,123 Q65,121 100,124 Q135,122 168,123" fill="none" stroke="#4488cc" stroke-width="0.6" opacity="0.060"/>
<path d="M32,131 Q65,129 100,132 Q135,130 168,131" fill="none" stroke="#4488cc" stroke-width="0.6" opacity="0.045"/>
<line x1="32.0" y1="72.0" x2="168.0" y2="72.0" stroke-linecap="round" stroke="#4488cc" stroke-width="0.3" opacity="0.2"/>
<ellipse cx="155.0" cy="85.0" rx="3.0" ry="12.0" fill="#bbccee" opacity="0.04"/>
<line x1="100.0" y1="20.0" x2="100.0" y2="150.0" stroke-linecap="round" stroke="#4488cc" stroke-width="0.6" opacity="0.25"/>
<line x1="30.0" y1="85.0" x2="170.0" y2="85.0" stroke-linecap="round" stroke="#4488cc" stroke-width="0.6" opacity="0.2"/>
<rect x="0.0" y="0.0" width="30.0" height="250.0" fill="#0e1a2a" opacity="0.8"/>
<rect x="170.0" y="0.0" width="30.0" height="250.0" fill="#0e1a2a" opacity="0.8"/>
<path d="M0,185 L200,185 L200,250 L0,250 Z" fill="#0e1a2a" opacity="0.6"/>
<line x1="0.0" y1="185.0" x2="200.0" y2="185.0" stroke-linecap="round" stroke="#335577" stroke-width="0.5" opacity="0.15"/>
<line x1="0.0" y1="209.6" x2="200.0" y2="209.6" stroke-linecap="round" stroke="#335577" stroke-width="0.5" opacity="0.13"/>
<line x1="0.0" y1="225.0" x2="200.0" y2="225.0" stroke-linecap="round" stroke="#335577" stroke-width="0.5" opacity="0.11"/>
<line x1="0.0" y1="238.1" x2="200.0" y2="238.1" stroke-linecap="round" stroke="#335577" stroke-width="0.5" opacity="0.09"/>
<line x1="0.0" y1="250.0" x2="200.0" y2="250.0" stroke-linecap="round" stroke="#335577" stroke-width="0.5" opacity="0.07"/>
<line x1="0.0" y1="185.0" x2="70.0" y2="250.0" stroke-linecap="round" stroke="#335577" stroke-width="0.3" opacity="0.08"/>
<line x1="33.3" y1="185.0" x2="80.0" y2="250.0" stroke-linecap="round" stroke="#335577" stroke-width="0.3" opacity="0.08"/>
<line x1="66.7" y1="185.0" x2="90.0" y2="250.0" stroke-linecap="round" stroke="#335577" stroke-width="0.3" opacity="0.08"/>
<line x1="100.0" y1="185.0" x2="100.0" y2="250.0" stroke-linecap="round" stroke="#335577" stroke-width="0.3" opacity="0.08"/>
<line x1="133.3" y1="185.0" x2="110.0" y2="250.0" stroke-linecap="round" stroke="#335577" stroke-width="0.3" opacity="0.08"/>
<line x1="166.7" y1="185.0" x2="120.0" y2="250.0" stroke-linecap="round" stroke="#335577" stroke-width="0.3" opacity="0.08"/>
<line x1="200.0" y1="185.0" x2="130.0" y2="250.0" stroke-linecap="round" stroke="#335577" stroke-width="0.3" opacity="0.08"/>
<line x1="55.0" y1="165.0" x2="75.0" y2="110.0" stroke-linecap="round" stroke="#4488cc" stroke-width="2" opacity="0.4"/>
<circle cx="55.0" cy="168.0" r="4.0" fill="#1a2a3a" stroke="#4488cc" stroke-width="0.5" opacity="0.5"/>
<circle cx="76.0" cy="108.0" r="6.0" fill="#1a2a3a" stroke="#4488cc" stroke-width="0.8" opacity="0.4"/>
<line x1="55.0" y1="170.0" x2="45.0" y2="195.0" stroke-linecap="round" stroke="#4488cc" stroke-width="1" opacity="0.3"/>
<line x1="55.0" y1="170.0" x2="65.0" y2="195.0" stroke-linecap="round" stroke="#4488cc" stroke-width="1" opacity="0.3"/>
<line x1="55.0" y1="170.0" x2="55.0" y2="195.0" stroke-linecap="round" stroke="#4488cc" stroke-width="0.8" opacity="0.25"/>
<circle cx="100.0" cy="100.0" r="60.0" fill="#4488cc" opacity="0.03" filter="url(#glow-amb)"/>
<rect x="0.0" y="0.0" width="200.0" height="250.0" fill="none" stroke="#4488cc" stroke-width="1.5" opacity="0.12"/>
</svg>
