<svg viewBox="0 0 200 250" xmlns="http://www.w3.org/2000/svg">
<defs>
  <!-- Amber rim light -->
  <linearGradient id="rim-r" x1="0%" y1="0%" x2="100%" y2="0%">
    <stop offset="0%" stop-color="#ffb000" stop-opacity="0"/>
    <stop offset="70%" stop-color="#ffb000" stop-opacity="0"/>
    <stop offset="100%" stop-color="#ffb000" stop-opacity="0.25"/>
  </linearGradient>
  <!-- Metallic gold -->
  <linearGradient id="gold" x1="0%" y1="0%" x2="100%" y2="100%">
    <stop offset="0%" stop-color="#ffd700"/>
    <stop offset="50%" stop-color="#ffb000"/>
    <stop offset="100%" stop-color="#cc8800"/>
  </linearGradient>
  <!-- Metallic silver -->
  <linearGradient id="silver" x1="0%" y1="0%" x2="100%" y2="100%">
    <stop offset="0%" stop-color="#ccc"/>
    <stop offset="50%" stop-color="#aaa"/>
    <stop offset="100%" stop-color="#888"/>
  </linearGradient>
  <!-- Filters -->
  <filter id="glow-amb" x="-50%" y="-50%" width="200%" height="200%">
    <feGaussianBlur in="SourceGraphic" stdDeviation="8"/>
  </filter>
  <filter id="glow-sm" x="-30%" y="-30%" width="160%" height="160%">
    <feGaussianBlur in="SourceGraphic" stdDeviation="3"/>
  </filter>
  <filter id="glow-md" x="-40%" y="-40%" width="180%" height="180%">
    <feGaussianBlur in="SourceGraphic" stdDeviation="5"/>
  </filter>
  <filter id="soft" x="-10%" y="-10%" width="120%" height="120%">
    <feGaussianBlur in="SourceGraphic" stdDeviation="1.5"/>
  </filter>
</defs>

<defs>
  <radialGradient id="bg-g" cx="50%" cy="30%">
    <stop offset="0%" stop-color="#0e0e12"/>
    <stop offset="100%" stop-color="#0a0a0a"/>
  </radialGradient>
</defs>
<rect x="0.0" y="0.0" width="200.0" height="250.0" fill="url(#bg-g)"/>
<path d="M10,120 Q10,30 100,10 Q190,30 190,120" fill="none" stroke="#aaaaaa" stroke-width="1" opacity="0.3"/>
<path d="M30,120 Q30,50 100,25 Q170,50 170,120" fill="none" stroke="#aaaaaa" stroke-width="0.5" opacity="0.2"/>
<path d="M50,120 Q50,55 100,35 Q150,55 150,120 Z" fill="#0a0a10" opacity="0.6"/>
<circle cx="80.0" cy="50.0" r="1.2" fill="#ccccdd" opacity="0.5"/>
<circle cx="80.0" cy="50.0" r="3.6" fill="#ccccdd" opacity="0.03" filter="url(#glow-sm)"/>
<circle cx="110.0" cy="42.0" r="0.9" fill="#ccccdd" opacity="0.5"/>
<circle cx="110.0" cy="42.0" r="2.7" fill="#ccccdd" opacity="0.03" filter="url(#glow-sm)"/>
<circle cx="95.0" cy="58.0" r="0.7" fill="#ccccdd" opacity="0.5"/>
<circle cx="125.0" cy="55.0" r="1.0" fill="#ccccdd" opacity="0.5"/>
<circle cx="125.0" cy="55.0" r="3.0" fill="#ccccdd" opacity="0.03" filter="url(#glow-sm)"/>
<circle cx="70.0" cy="65.0" r="0.6" fill="#ccccdd" opacity="0.5"/>
<circle cx="140.0" cy="48.0" r="0.8" fill="#ccccdd" opacity="0.5"/>
<circle cx="100.0" cy="38.0" r="0.5" fill="#ccccdd" opacity="0.5"/>
<circle cx="88.0" cy="72.0" r="0.7" fill="#ccccdd" opacity="0.5"/>
<circle cx="130.0" cy="68.0" r="0.6" fill="#ccccdd" opacity="0.5"/>
<circle cx="75.0" cy="80.0" r="0.5" fill="#ccccdd" opacity="0.5"/>
<circle cx="115.0" cy="75.0" r="0.8" fill="#ccccdd" opacity="0.5"/>
<circle cx="105.0" cy="48.0" r="0.6" fill="#ccccdd" opacity="0.5"/>
<circle cx="90.0" cy="45.0" r="0.9" fill="#ccccdd" opacity="0.5"/>
<circle cx="90.0" cy="45.0" r="2.7" fill="#ccccdd" opacity="0.03" filter="url(#glow-sm)"/>
<circle cx="135.0" cy="60.0" r="0.7" fill="#ccccdd" opacity="0.5"/>
<circle cx="65.0" cy="55.0" r="0.5" fill="#ccccdd" opacity="0.5"/>
<circle cx="100.0" cy="55.0" r="3.0" fill="#ffffff" opacity="0.6"/>
<circle cx="100.0" cy="55.0" r="8.0" fill="#ffffff" opacity="0.08" filter="url(#glow-sm)"/>
<circle cx="100.0" cy="55.0" r="20.0" fill="#ddddff" opacity="0.03" filter="url(#glow-amb)"/>
<line x1="100.0" y1="55.0" x2="112.0" y2="55.0" stroke-linecap="round" stroke="#ffffff" stroke-width="0.4" opacity="0.15"/>
<line x1="100.0" y1="55.0" x2="108.5" y2="63.5" stroke-linecap="round" stroke="#ffffff" stroke-width="0.4" opacity="0.15"/>
<line x1="100.0" y1="55.0" x2="100.0" y2="67.0" stroke-linecap="round" stroke="#ffffff" stroke-width="0.4" opacity="0.15"/>
<line x1="100.0" y1="55.0" x2="91.5" y2="63.5" stroke-linecap="round" stroke="#ffffff" stroke-width="0.4" opacity="0.15"/>
<path d="M46,120 Q68,56 100,23" fill="none" stroke="#aaaaaa" stroke-width="0.4" opacity="0.12"/>
<path d="M73,120 Q84,48 100,19" fill="none" stroke="#aaaaaa" stroke-width="0.4" opacity="0.12"/>
<path d="M100,120 Q100,40 100,15" fill="none" stroke="#aaaaaa" stroke-width="0.4" opacity="0.12"/>
<path d="M127,120 Q116,48 100,19" fill="none" stroke="#aaaaaa" stroke-width="0.4" opacity="0.12"/>
<path d="M154,120 Q132,56 100,23" fill="none" stroke="#aaaaaa" stroke-width="0.4" opacity="0.12"/>
<path d="M0,190 L200,190 L200,250 L0,250 Z" fill="#0e0e12" opacity="0.6"/>
<line x1="0.0" y1="190.0" x2="200.0" y2="190.0" stroke-linecap="round" stroke="#555555" stroke-width="0.5" opacity="0.15"/>
<line x1="0.0" y1="212.7" x2="200.0" y2="212.7" stroke-linecap="round" stroke="#555555" stroke-width="0.5" opacity="0.13"/>
<line x1="0.0" y1="226.9" x2="200.0" y2="226.9" stroke-linecap="round" stroke="#555555" stroke-width="0.5" opacity="0.11"/>
<line x1="0.0" y1="239.1" x2="200.0" y2="239.1" stroke-linecap="round" stroke="#555555" stroke-width="0.5" opacity="0.09"/>
<line x1="0.0" y1="250.0" x2="200.0" y2="250.0" stroke-linecap="round" stroke="#555555" stroke-width="0.5" opacity="0.07"/>
<line x1="0.0" y1="190.0" x2="70.0" y2="250.0" stroke-linecap="round" stroke="#555555" stroke-width="0.3" opacity="0.08"/>
<line x1="33.3" y1="190.0" x2="80.0" y2="250.0" stroke-linecap="round" stroke="#555555" stroke-width="0.3" opacity="0.08"/>
<line x1="66.7" y1="190.0" x2="90.0" y2="250.0" stroke-linecap="round" stroke="#555555" stroke-width="0.3" opacity="0.08"/>
<line x1="100.0" y1="190.0" x2="100.0" y2="250.0" stroke-linecap="round" stroke="#555555" stroke-width="0.3" opacity="0.08"/>
<line x1="133.3" y1="190.0" x2="110.0" y2="250.0" stroke-linecap="round" stroke="#555555" stroke-width="0.3" opacity="0.08"/>
<line x1="166.7" y1="190.0" x2="120.0" y2="250.0" stroke-linecap="round" stroke="#555555" stroke-width="0.3" opacity="0.08"/>
<line x1="200.0" y1="190.0" x2="130.0" y2="250.0" stroke-linecap="round" stroke="#555555" stroke-width="0.3" opacity="0.08"/>
<rect x="0.0" y="120.0" width="10.0" height="130.0" fill="#1a1a1e" opacity="0.8"/>
<rect x="190.0" y="120.0" width="10.0" height="130.0" fill="#1a1a1e" opacity="0.8"/>
<rect x="82.0" y="195.0" width="36.0" height="5.0" fill="#2a2a2a" stroke="#aaaaaa" stroke-width="0.3" opacity="0.4"/>
<rect x="95.0" y="200.0" width="10.0" height="20.0" fill="#2a2a2a" opacity="0.4"/>
<circle cx="100.0" cy="190.0" r="10.0" fill="none" stroke="#aaaaaa" stroke-width="0.6" opacity="0.3"/>
<line x1="100.0" y1="182.0" x2="100.0" y2="198.0" stroke-linecap="round" stroke="#aaaaaa" stroke-width="0.3" opacity="0.2"/>
<line x1="92.0" y1="190.0" x2="108.0" y2="190.0" stroke-linecap="round" stroke="#aaaaaa" stroke-width="0.3" opacity="0.2"/>
<rect x="0.0" y="0.0" width="200.0" height="250.0" fill="none" stroke="#aaaaaa" stroke-width="1.5" opacity="0.12"/>
</svg>
