<svg viewBox="0 0 200 250" xmlns="http://www.w3.org/2000/svg">
<defs>
  <!-- Amber rim light -->
  <linearGradient id="rim-r" x1="0%" y1="0%" x2="100%" y2="0%">
    <stop offset="0%" stop-color="#ffb000" stop-opacity="0"/>
    <stop offset="70%" stop-color="#ffb000" stop-opacity="0"/>
    <stop offset="100%" stop-color="#ffb000" stop-opacity="0.25"/>
  </linearGradient>
  <!-- Metallic gold -->
  <linearGradient id="gold" x1="0%" y1="0%" x2="100%" y2="100%">
    <stop offset="0%" stop-color="#ffd700"/>
    <stop offset="50%" stop-color="#ffb000"/>
    <stop offset="100%" stop-color="#cc8800"/>
  </linearGradient>
  <!-- Metallic silver -->
  <linearGradient id="silver" x1="0%" y1="0%" x2="100%" y2="100%">
    <stop offset="0%" stop-color="#ccc"/>
    <stop offset="50%" stop-color="#aaa"/>
    <stop offset="100%" stop-color="#888"/>
  </linearGradient>
  <!-- Filters -->
  <filter id="glow-amb" x="-50%" y="-50%" width="200%" height="200%">
    <feGaussianBlur in="SourceGraphic" stdDeviation="8"/>
  </filter>
  <filter id="glow-sm" x="-30%" y="-30%" width="160%" height="160%">
    <feGaussianBlur in="SourceGraphic" stdDeviation="3"/>
  </filter>
  <filter id="glow-md" x="-40%" y="-40%" width="180%" height="180%">
    <feGaussianBlur in="SourceGraphic" stdDeviation="5"/>
  </filter>
  <filter id="soft" x="-10%" y="-10%" width="120%" height="120%">
    <feGaussianBlur in="SourceGraphic" stdDeviation="1.5"/>
  </filter>
</defs>

<defs>
  <radialGradient id="bg-g" cx="50%" cy="60%">
    <stop offset="0%" stop-color="#1a0a0a"/>
    <stop offset="100%" stop-color="#0a0a0a"/>
  </radialGradient>
</defs>
<rect x="0.0" y="0.0" width="200.0" height="250.0" fill="url(#bg-g)"/>
<rect x="0.0" y="0.0" width="48.0" height="37.8" fill="#332020" opacity="0.40" stroke="#332020" stroke-width="0.3"/>
<rect x="50.0" y="0.0" width="48.0" height="37.8" fill="#332020" opacity="0.43" stroke="#332020" stroke-width="0.3"/>
<rect x="100.0" y="0.0" width="48.0" height="37.8" fill="#332020" opacity="0.46" stroke="#332020" stroke-width="0.3"/>
<rect x="150.0" y="0.0" width="48.0" height="37.8" fill="#332020" opacity="0.40" stroke="#332020" stroke-width="0.3"/>
<rect x="16.0" y="38.8" width="38.0" height="37.8" fill="#332020" opacity="0.43" stroke="#332020" stroke-width="0.3"/>
<rect x="56.0" y="38.8" width="38.0" height="37.8" fill="#332020" opacity="0.46" stroke="#332020" stroke-width="0.3"/>
<rect x="96.0" y="38.8" width="38.0" height="37.8" fill="#332020" opacity="0.40" stroke="#332020" stroke-width="0.3"/>
<rect x="136.0" y="38.8" width="38.0" height="37.8" fill="#332020" opacity="0.43" stroke="#332020" stroke-width="0.3"/>
<rect x="176.0" y="38.8" width="24.0" height="37.8" fill="#332020" opacity="0.46" stroke="#332020" stroke-width="0.3"/>
<rect x="0.0" y="77.5" width="48.0" height="37.8" fill="#332020" opacity="0.46" stroke="#332020" stroke-width="0.3"/>
<rect x="50.0" y="77.5" width="48.0" height="37.8" fill="#332020" opacity="0.40" stroke="#332020" stroke-width="0.3"/>
<rect x="100.0" y="77.5" width="48.0" height="37.8" fill="#332020" opacity="0.43" stroke="#332020" stroke-width="0.3"/>
<rect x="150.0" y="77.5" width="48.0" height="37.8" fill="#332020" opacity="0.46" stroke="#332020" stroke-width="0.3"/>
<rect x="16.0" y="116.2" width="38.0" height="37.8" fill="#332020" opacity="0.40" stroke="#332020" stroke-width="0.3"/>
<rect x="56.0" y="116.2" width="38.0" height="37.8" fill="#332020" opacity="0.43" stroke="#332020" stroke-width="0.3"/>
<rect x="96.0" y="116.2" width="38.0" height="37.8" fill="#332020" opacity="0.46" stroke="#332020" stroke-width="0.3"/>
<rect x="136.0" y="116.2" width="38.0" height="37.8" fill="#332020" opacity="0.40" stroke="#332020" stroke-width="0.3"/>
<rect x="176.0" y="116.2" width="24.0" height="37.8" fill="#332020" opacity="0.43" stroke="#332020" stroke-width="0.3"/>
<path d="M0,155 L200,155 L200,250 L0,250 Z" fill="#1a0a0a" opacity="0.6"/>
<line x1="0.0" y1="155.0" x2="200.0" y2="155.0" stroke-linecap="round" stroke="#553333" stroke-width="0.5" opacity="0.15"/>
<line x1="0.0" y1="191.0" x2="200.0" y2="191.0" stroke-linecap="round" stroke="#553333" stroke-width="0.5" opacity="0.13"/>
<line x1="0.0" y1="213.5" x2="200.0" y2="213.5" stroke-linecap="round" stroke="#553333" stroke-width="0.5" opacity="0.11"/>
<line x1="0.0" y1="232.7" x2="200.0" y2="232.7" stroke-linecap="round" stroke="#553333" stroke-width="0.5" opacity="0.09"/>
<line x1="0.0" y1="250.0" x2="200.0" y2="250.0" stroke-linecap="round" stroke="#553333" stroke-width="0.5" opacity="0.07"/>
<line x1="0.0" y1="155.0" x2="70.0" y2="250.0" stroke-linecap="round" stroke="#553333" stroke-width="0.3" opacity="0.08"/>
<line x1="33.3" y1="155.0" x2="80.0" y2="250.0" stroke-linecap="round" stroke="#553333" stroke-width="0.3" opacity="0.08"/>
<line x1="66.7" y1="155.0" x2="90.0" y2="250.0" stroke-linecap="round" stroke="#553333" stroke-width="0.3" opacity="0.08"/>
<line x1="100.0" y1="155.0" x2="100.0" y2="250.0" stroke-linecap="round" stroke="#553333" stroke-width="0.3" opacity="0.08"/>
<line x1="133.3" y1="155.0" x2="110.0" y2="250.0" stroke-linecap="round" stroke="#553333" stroke-width="0.3" opacity="0.08"/>
<line x1="166.7" y1="155.0" x2="120.0" y2="250.0" stroke-linecap="round" stroke="#553333" stroke-width="0.3" opacity="0.08"/>
<line x1="200.0" y1="155.0" x2="130.0" y2="250.0" stroke-linecap="round" stroke="#553333" stroke-width="0.3" opacity="0.08"/>
<path d="M60,90 L60,155 L140,155 L140,90 Q120,60 100,55 Q80,60 60,90 Z" fill="#1a0500" stroke="#cc3333" stroke-width="0.8" opacity="0.7"/>
<path d="M77,155 Q85,95 85,105 Q85,95 93,155" fill="#cc3333" opacity="0.25"/>
<path d="M90,155 Q100,80 100,90 Q100,80 110,155" fill="#cc3333" opacity="0.35"/>
<path d="M108,155 Q115,100 115,110 Q115,100 122,155" fill="#cc3333" opacity="0.20"/>
<path d="M86,155 Q95,90 95,100 Q95,90 104,155" fill="#cc3333" opacity="0.30"/>
<path d="M102,155 Q108,97 108,107 Q108,97 114,155" fill="#cc3333" opacity="0.22"/>
<path d="M90,155 Q95,120 100,155" fill="#ff8800" opacity="0.20"/>
<path d="M94,155 Q100,110 106,155" fill="#ff8800" opacity="0.25"/>
<path d="M101,155 Q105,125 109,155" fill="#ff8800" opacity="0.18"/>
<circle cx="100.0" cy="135.0" r="55.0" fill="#cc3333" opacity="0.06" filter="url(#glow-amb)"/>
<circle cx="100.0" cy="145.0" r="35.0" fill="#ff8800" opacity="0.04" filter="url(#glow-amb)"/>
<path d="M70,175 L75,165 L125,165 L130,175 L135,185 L65,185 Z" fill="#3a3a3a" stroke="#cc3333" stroke-width="0.5" opacity="0.7"/>
<rect x="78.0" y="165.0" width="44.0" height="4.0" fill="#cc3333" opacity="0.06"/>
<path d="M125,165 L145,162 L145,168 L130,175 Z" fill="#333" stroke="#cc3333" stroke-width="0.3" opacity="0.6"/>
<rect x="148.0" y="170.0" width="5.0" height="30.0" fill="#3a2a1a" opacity="0.5"/>
<rect x="143.0" y="165.0" width="15.0" height="8.0" fill="#4a4a4a" stroke="#cc3333" stroke-width="0.3" opacity="0.6"/>
<circle cx="90.0" cy="120.0" r="1.0" fill="#ff8800" opacity="0.3"/>
<circle cx="90.0" cy="120.0" r="3.0" fill="#ff8800" opacity="0.03" filter="url(#glow-sm)"/>
<circle cx="112.0" cy="115.0" r="0.8" fill="#ff8800" opacity="0.3"/>
<circle cx="112.0" cy="115.0" r="2.4" fill="#ff8800" opacity="0.03" filter="url(#glow-sm)"/>
<circle cx="95.0" cy="108.0" r="0.6" fill="#ff8800" opacity="0.3"/>
<circle cx="95.0" cy="108.0" r="1.8" fill="#ff8800" opacity="0.03" filter="url(#glow-sm)"/>
<circle cx="108.0" cy="100.0" r="0.7" fill="#ff8800" opacity="0.3"/>
<circle cx="108.0" cy="100.0" r="2.1" fill="#ff8800" opacity="0.03" filter="url(#glow-sm)"/>
<circle cx="85.0" cy="110.0" r="0.5" fill="#ff8800" opacity="0.3"/>
<circle cx="85.0" cy="110.0" r="1.5" fill="#ff8800" opacity="0.03" filter="url(#glow-sm)"/>
<circle cx="118.0" cy="105.0" r="0.9" fill="#ff8800" opacity="0.3"/>
<circle cx="118.0" cy="105.0" r="2.7" fill="#ff8800" opacity="0.03" filter="url(#glow-sm)"/>
<rect x="0.0" y="0.0" width="200.0" height="250.0" fill="none" stroke="#cc3333" stroke-width="1.5" opacity="0.12"/>
</svg>
