<svg viewBox="0 0 200 250" xmlns="http://www.w3.org/2000/svg">
<defs>
  <!-- Amber rim light -->
  <linearGradient id="rim-r" x1="0%" y1="0%" x2="100%" y2="0%">
    <stop offset="0%" stop-color="#ffb000" stop-opacity="0"/>
    <stop offset="70%" stop-color="#ffb000" stop-opacity="0"/>
    <stop offset="100%" stop-color="#ffb000" stop-opacity="0.25"/>
  </linearGradient>
  <!-- Metallic gold -->
  <linearGradient id="gold" x1="0%" y1="0%" x2="100%" y2="100%">
    <stop offset="0%" stop-color="#ffd700"/>
    <stop offset="50%" stop-color="#ffb000"/>
    <stop offset="100%" stop-color="#cc8800"/>
  </linearGradient>
  <!-- Metallic silver -->
  <linearGradient id="silver" x1="0%" y1="0%" x2="100%" y2="100%">
    <stop offset="0%" stop-color="#ccc"/>
    <stop offset="50%" stop-color="#aaa"/>
    <stop offset="100%" stop-color="#888"/>
  </linearGradient>
  <!-- Filters -->
  <filter id="glow-amb" x="-50%" y="-50%" width="200%" height="200%">
    <feGaussianBlur in="SourceGraphic" stdDeviation="8"/>
  </filter>
  <filter id="glow-sm" x="-30%" y="-30%" width="160%" height="160%">
    <feGaussianBlur in="SourceGraphic" stdDeviation="3"/>
  </filter>
  <filter id="glow-md" x="-40%" y="-40%" width="180%" height="180%">
    <feGaussianBlur in="SourceGraphic" stdDeviation="5"/>
  </filter>
  <filter id="soft" x="-10%" y="-10%" width="120%" height="120%">
    <feGaussianBlur in="SourceGraphic" stdDeviation="1.5"/>
  </filter>
</defs>

<defs>
  <radialGradient id="bg-g" cx="50%" cy="40%">
    <stop offset="0%" stop-color="#1a1400"/>
    <stop offset="100%" stop-color="#0a0a0a"/>
  </radialGradient>
</defs>
<rect x="0.0" y="0.0" width="200.0" height="250.0" fill="url(#bg-g)"/>
<path d="M0,185 L200,185 L200,250 L0,250 Z" fill="#1a1200" opacity="0.6"/>
<line x1="0.0" y1="185.0" x2="200.0" y2="185.0" stroke-linecap="round" stroke="#554400" stroke-width="0.5" opacity="0.15"/>
<line x1="0.0" y1="209.6" x2="200.0" y2="209.6" stroke-linecap="round" stroke="#554400" stroke-width="0.5" opacity="0.13"/>
<line x1="0.0" y1="225.0" x2="200.0" y2="225.0" stroke-linecap="round" stroke="#554400" stroke-width="0.5" opacity="0.11"/>
<line x1="0.0" y1="238.1" x2="200.0" y2="238.1" stroke-linecap="round" stroke="#554400" stroke-width="0.5" opacity="0.09"/>
<line x1="0.0" y1="250.0" x2="200.0" y2="250.0" stroke-linecap="round" stroke="#554400" stroke-width="0.5" opacity="0.07"/>
<line x1="0.0" y1="185.0" x2="70.0" y2="250.0" stroke-linecap="round" stroke="#554400" stroke-width="0.3" opacity="0.08"/>
<line x1="33.3" y1="185.0" x2="80.0" y2="250.0" stroke-linecap="round" stroke="#554400" stroke-width="0.3" opacity="0.08"/>
<line x1="66.7" y1="185.0" x2="90.0" y2="250.0" stroke-linecap="round" stroke="#554400" stroke-width="0.3" opacity="0.08"/>
<line x1="100.0" y1="185.0" x2="100.0" y2="250.0" stroke-linecap="round" stroke="#554400" stroke-width="0.3" opacity="0.08"/>
<line x1="133.3" y1="185.0" x2="110.0" y2="250.0" stroke-linecap="round" stroke="#554400" stroke-width="0.3" opacity="0.08"/>
<line x1="166.7" y1="185.0" x2="120.0" y2="250.0" stroke-linecap="round" stroke="#554400" stroke-width="0.3" opacity="0.08"/>
<line x1="200.0" y1="185.0" x2="130.0" y2="250.0" stroke-linecap="round" stroke="#554400" stroke-width="0.3" opacity="0.08"/>
<rect x="20.0" y="30.0" width="40.0" height="70.0" fill="none" stroke="#ffb000" stroke-width="1.5" opacity="0.4"/>
<rect x="23.0" y="33.0" width="34.0" height="64.0" fill="#1a1a1a" opacity="0.8"/>
<path d="M25,36 L32,36 L25,55" fill="#ffb000" opacity="0.04"/>
<line x1="48.0" y1="40.0" x2="52.0" y2="85.0" stroke-linecap="round" stroke="#ffb000" stroke-width="0.5" opacity="0.08"/>
<circle cx="40.0" cy="28.0" r="4.0" fill="none" stroke="#ffb000" stroke-width="0.6" opacity="0.3"/>
<rect x="85.0" y="30.0" width="40.0" height="70.0" fill="none" stroke="#ffb000" stroke-width="1.5" opacity="0.4"/>
<rect x="88.0" y="33.0" width="34.0" height="64.0" fill="#1a1a1a" opacity="0.8"/>
<path d="M90,36 L97,36 L90,55" fill="#ffb000" opacity="0.04"/>
<line x1="113.0" y1="40.0" x2="117.0" y2="85.0" stroke-linecap="round" stroke="#ffb000" stroke-width="0.5" opacity="0.08"/>
<circle cx="105.0" cy="28.0" r="4.0" fill="none" stroke="#ffb000" stroke-width="0.6" opacity="0.3"/>
<rect x="150.0" y="30.0" width="40.0" height="70.0" fill="none" stroke="#ffb000" stroke-width="1.5" opacity="0.4"/>
<rect x="153.0" y="33.0" width="34.0" height="64.0" fill="#1a1a1a" opacity="0.8"/>
<path d="M155,36 L162,36 L155,55" fill="#ffb000" opacity="0.04"/>
<line x1="178.0" y1="40.0" x2="182.0" y2="85.0" stroke-linecap="round" stroke="#ffb000" stroke-width="0.5" opacity="0.08"/>
<circle cx="170.0" cy="28.0" r="4.0" fill="none" stroke="#ffb000" stroke-width="0.6" opacity="0.3"/>
<circle cx="100.0" cy="100.0" r="60.0" fill="#ffb000" opacity="0.04" filter="url(#glow-amb)"/>
<rect x="30.0" y="190.0" width="30.0" height="40.0" fill="#ffb000" opacity="0.015"/>
<rect x="95.0" y="190.0" width="30.0" height="40.0" fill="#ffb000" opacity="0.015"/>
<rect x="160.0" y="190.0" width="30.0" height="40.0" fill="#ffb000" opacity="0.015"/>
<line x1="100.0" y1="0.0" x2="100.0" y2="20.0" stroke-linecap="round" stroke="#ffb000" stroke-width="0.8" opacity="0.3"/>
<circle cx="100.0" cy="22.0" r="3.0" fill="#ffb000" opacity="0.15"/>
<path d="M85,22 Q83,16 85,10 Q87,16 85,22" fill="#ffb000" opacity="0.2"/>
<circle cx="85.0" cy="14.0" r="4.0" fill="#ffb000" opacity="0.04" filter="url(#glow-sm)"/>
<path d="M100,22 Q98,16 100,10 Q102,16 100,22" fill="#ffb000" opacity="0.2"/>
<circle cx="100.0" cy="14.0" r="4.0" fill="#ffb000" opacity="0.04" filter="url(#glow-sm)"/>
<path d="M115,22 Q113,16 115,10 Q117,16 115,22" fill="#ffb000" opacity="0.2"/>
<circle cx="115.0" cy="14.0" r="4.0" fill="#ffb000" opacity="0.04" filter="url(#glow-sm)"/>
<rect x="0.0" y="0.0" width="200.0" height="250.0" fill="none" stroke="#ffb000" stroke-width="1.5" opacity="0.12"/>
</svg>
