<svg viewBox="0 0 200 250" xmlns="http://www.w3.org/2000/svg">
<defs>
  <!-- Amber rim light -->
  <linearGradient id="rim-r" x1="0%" y1="0%" x2="100%" y2="0%">
    <stop offset="0%" stop-color="#ffb000" stop-opacity="0"/>
    <stop offset="70%" stop-color="#ffb000" stop-opacity="0"/>
    <stop offset="100%" stop-color="#ffb000" stop-opacity="0.25"/>
  </linearGradient>
  <!-- Metallic gold -->
  <linearGradient id="gold" x1="0%" y1="0%" x2="100%" y2="100%">
    <stop offset="0%" stop-color="#ffd700"/>
    <stop offset="50%" stop-color="#ffb000"/>
    <stop offset="100%" stop-color="#cc8800"/>
  </linearGradient>
  <!-- Metallic silver -->
  <linearGradient id="silver" x1="0%" y1="0%" x2="100%" y2="100%">
    <stop offset="0%" stop-color="#ccc"/>
    <stop offset="50%" stop-color="#aaa"/>
    <stop offset="100%" stop-color="#888"/>
  </linearGradient>
  <!-- Filters -->
  <filter id="glow-amb" x="-50%" y="-50%" width="200%" height="200%">
    <feGaussianBlur in="SourceGraphic" stdDeviation="8"/>
  </filter>
  <filter id="glow-sm" x="-30%" y="-30%" width="160%" height="160%">
    <feGaussianBlur in="SourceGraphic" stdDeviation="3"/>
  </filter>
  <filter id="glow-md" x="-40%" y="-40%" width="180%" height="180%">
    <feGaussianBlur in="SourceGraphic" stdDeviation="5"/>
  </filter>
  <filter id="soft" x="-10%" y="-10%" width="120%" height="120%">
    <feGaussianBlur in="SourceGraphic" stdDeviation="1.5"/>
  </filter>
</defs>

<defs>
  <radialGradient id="bg-g" cx="50%" cy="40%">
    <stop offset="0%" stop-color="#1a1208"/>
    <stop offset="100%" stop-color="#0a0a0a"/>
  </radialGradient>
</defs>
<rect x="0.0" y="0.0" width="200.0" height="250.0" fill="url(#bg-g)"/>
<rect x="0.0" y="0.0" width="48.0" height="27.3" fill="#443322" opacity="0.40" stroke="#443322" stroke-width="0.3"/>
<rect x="50.0" y="0.0" width="48.0" height="27.3" fill="#443322" opacity="0.43" stroke="#443322" stroke-width="0.3"/>
<rect x="100.0" y="0.0" width="48.0" height="27.3" fill="#443322" opacity="0.46" stroke="#443322" stroke-width="0.3"/>
<rect x="150.0" y="0.0" width="48.0" height="27.3" fill="#443322" opacity="0.40" stroke="#443322" stroke-width="0.3"/>
<rect x="16.0" y="28.3" width="38.0" height="27.3" fill="#443322" opacity="0.43" stroke="#443322" stroke-width="0.3"/>
<rect x="56.0" y="28.3" width="38.0" height="27.3" fill="#443322" opacity="0.46" stroke="#443322" stroke-width="0.3"/>
<rect x="96.0" y="28.3" width="38.0" height="27.3" fill="#443322" opacity="0.40" stroke="#443322" stroke-width="0.3"/>
<rect x="136.0" y="28.3" width="38.0" height="27.3" fill="#443322" opacity="0.43" stroke="#443322" stroke-width="0.3"/>
<rect x="176.0" y="28.3" width="24.0" height="27.3" fill="#443322" opacity="0.46" stroke="#443322" stroke-width="0.3"/>
<rect x="0.0" y="56.7" width="48.0" height="27.3" fill="#443322" opacity="0.46" stroke="#443322" stroke-width="0.3"/>
<rect x="50.0" y="56.7" width="48.0" height="27.3" fill="#443322" opacity="0.40" stroke="#443322" stroke-width="0.3"/>
<rect x="100.0" y="56.7" width="48.0" height="27.3" fill="#443322" opacity="0.43" stroke="#443322" stroke-width="0.3"/>
<rect x="150.0" y="56.7" width="48.0" height="27.3" fill="#443322" opacity="0.46" stroke="#443322" stroke-width="0.3"/>
<rect x="16.0" y="85.0" width="38.0" height="27.3" fill="#443322" opacity="0.40" stroke="#443322" stroke-width="0.3"/>
<rect x="56.0" y="85.0" width="38.0" height="27.3" fill="#443322" opacity="0.43" stroke="#443322" stroke-width="0.3"/>
<rect x="96.0" y="85.0" width="38.0" height="27.3" fill="#443322" opacity="0.46" stroke="#443322" stroke-width="0.3"/>
<rect x="136.0" y="85.0" width="38.0" height="27.3" fill="#443322" opacity="0.40" stroke="#443322" stroke-width="0.3"/>
<rect x="176.0" y="85.0" width="24.0" height="27.3" fill="#443322" opacity="0.43" stroke="#443322" stroke-width="0.3"/>
<rect x="0.0" y="113.3" width="48.0" height="27.3" fill="#443322" opacity="0.43" stroke="#443322" stroke-width="0.3"/>
<rect x="50.0" y="113.3" width="48.0" height="27.3" fill="#443322" opacity="0.46" stroke="#443322" stroke-width="0.3"/>
<rect x="100.0" y="113.3" width="48.0" height="27.3" fill="#443322" opacity="0.40" stroke="#443322" stroke-width="0.3"/>
<rect x="150.0" y="113.3" width="48.0" height="27.3" fill="#443322" opacity="0.43" stroke="#443322" stroke-width="0.3"/>
<rect x="16.0" y="141.7" width="38.0" height="27.3" fill="#443322" opacity="0.46" stroke="#443322" stroke-width="0.3"/>
<rect x="56.0" y="141.7" width="38.0" height="27.3" fill="#443322" opacity="0.40" stroke="#443322" stroke-width="0.3"/>
<rect x="96.0" y="141.7" width="38.0" height="27.3" fill="#443322" opacity="0.43" stroke="#443322" stroke-width="0.3"/>
<rect x="136.0" y="141.7" width="38.0" height="27.3" fill="#443322" opacity="0.46" stroke="#443322" stroke-width="0.3"/>
<rect x="176.0" y="141.7" width="24.0" height="27.3" fill="#443322" opacity="0.40" stroke="#443322" stroke-width="0.3"/>
<path d="M0,170 L200,170 L200,250 L0,250 Z" fill="#332211" opacity="0.6"/>
<line x1="0.0" y1="170.0" x2="200.0" y2="170.0" stroke-linecap="round" stroke="#665544" stroke-width="0.5" opacity="0.15"/>
<line x1="0.0" y1="200.3" x2="200.0" y2="200.3" stroke-linecap="round" stroke="#665544" stroke-width="0.5" opacity="0.13"/>
<line x1="0.0" y1="219.2" x2="200.0" y2="219.2" stroke-linecap="round" stroke="#665544" stroke-width="0.5" opacity="0.11"/>
<line x1="0.0" y1="235.4" x2="200.0" y2="235.4" stroke-linecap="round" stroke="#665544" stroke-width="0.5" opacity="0.09"/>
<line x1="0.0" y1="250.0" x2="200.0" y2="250.0" stroke-linecap="round" stroke="#665544" stroke-width="0.5" opacity="0.07"/>
<line x1="0.0" y1="170.0" x2="70.0" y2="250.0" stroke-linecap="round" stroke="#665544" stroke-width="0.3" opacity="0.08"/>
<line x1="33.3" y1="170.0" x2="80.0" y2="250.0" stroke-linecap="round" stroke="#665544" stroke-width="0.3" opacity="0.08"/>
<line x1="66.7" y1="170.0" x2="90.0" y2="250.0" stroke-linecap="round" stroke="#665544" stroke-width="0.3" opacity="0.08"/>
<line x1="100.0" y1="170.0" x2="100.0" y2="250.0" stroke-linecap="round" stroke="#665544" stroke-width="0.3" opacity="0.08"/>
<line x1="133.3" y1="170.0" x2="110.0" y2="250.0" stroke-linecap="round" stroke="#665544" stroke-width="0.3" opacity="0.08"/>
<line x1="166.7" y1="170.0" x2="120.0" y2="250.0" stroke-linecap="round" stroke="#665544" stroke-width="0.3" opacity="0.08"/>
<line x1="200.0" y1="170.0" x2="130.0" y2="250.0" stroke-linecap="round" stroke="#665544" stroke-width="0.3" opacity="0.08"/>
<rect x="70.0" y="80.0" width="60.0" height="90.0" fill="#2a1a0a" stroke="#886644" stroke-width="1" opacity="0.8"/>
<path d="M85,85 L100,75 L115,85" fill="none" stroke="#886644" stroke-width="1.2" opacity="0.5"/>
<circle cx="100.0" cy="78.0" r="3.0" fill="#886644" opacity="0.4"/>
<rect x="68.0" y="140.0" width="64.0" height="16.0" fill="#3a2a1a" stroke="#886644" stroke-width="0.8" opacity="0.8"/>
<rect x="62.0" y="110.0" width="10.0" height="46.0" fill="#2a1a0a" stroke="#886644" stroke-width="0.6" opacity="0.7"/>
<rect x="128.0" y="110.0" width="10.0" height="46.0" fill="#2a1a0a" stroke="#886644" stroke-width="0.6" opacity="0.7"/>
<rect x="72.0" y="156.0" width="8.0" height="14.0" fill="#3a2a1a" stroke="#886644" stroke-width="0.4" opacity="0.6"/>
<rect x="120.0" y="156.0" width="8.0" height="14.0" fill="#3a2a1a" stroke="#886644" stroke-width="0.4" opacity="0.6"/>
<circle cx="100.0" cy="120.0" r="50.0" fill="#886644" opacity="0.04" filter="url(#glow-amb)"/>
<rect x="23.0" y="100.0" width="4.0" height="20.0" fill="#443322" opacity="0.7"/>
<path d="M25,100 Q22,92 25,85 Q28,92 25,100" fill="#ff8800" opacity="0.3"/>
<circle cx="25.0" cy="90.0" r="8.0" fill="#ff8800" opacity="0.05" filter="url(#glow-sm)"/>
<rect x="173.0" y="100.0" width="4.0" height="20.0" fill="#443322" opacity="0.7"/>
<path d="M175,100 Q172,92 175,85 Q178,92 175,100" fill="#ff8800" opacity="0.3"/>
<circle cx="175.0" cy="90.0" r="8.0" fill="#ff8800" opacity="0.05" filter="url(#glow-sm)"/>
<rect x="0.0" y="0.0" width="200.0" height="250.0" fill="none" stroke="#886644" stroke-width="1.5" opacity="0.12"/>
</svg>
