<svg viewBox="0 0 200 250" xmlns="http://www.w3.org/2000/svg">
<defs>
  <!-- Amber rim light -->
  <linearGradient id="rim-r" x1="0%" y1="0%" x2="100%" y2="0%">
    <stop offset="0%" stop-color="#ffb000" stop-opacity="0"/>
    <stop offset="70%" stop-color="#ffb000" stop-opacity="0"/>
    <stop offset="100%" stop-color="#ffb000" stop-opacity="0.25"/>
  </linearGradient>
  <!-- Metallic gold -->
  <linearGradient id="gold" x1="0%" y1="0%" x2="100%" y2="100%">
    <stop offset="0%" stop-color="#ffd700"/>
    <stop offset="50%" stop-color="#ffb000"/>
    <stop offset="100%" stop-color="#cc8800"/>
  </linearGradient>
  <!-- Metallic silver -->
  <linearGradient id="silver" x1="0%" y1="0%" x2="100%" y2="100%">
    <stop offset="0%" stop-color="#ccc"/>
    <stop offset="50%" stop-color="#aaa"/>
    <stop offset="100%" stop-color="#888"/>
  </linearGradient>
  <!-- Filters -->
  <filter id="glow-amb" x="-50%" y="-50%" width="200%" height="200%">
    <feGaussianBlur in="SourceGraphic" stdDeviation="8"/>
  </filter>
  <filter id="glow-sm" x="-30%" y="-30%" width="160%" height="160%">
    <feGaussianBlur in="SourceGraphic" stdDeviation="3"/>
  </filter>
  <filter id="glow-md" x="-40%" y="-40%" width="180%" height="180%">
    <feGaussianBlur in="SourceGraphic" stdDeviation="5"/>
  </filter>
  <filter id="soft" x="-10%" y="-10%" width="120%" height="120%">
    <feGaussianBlur in="SourceGraphic" stdDeviation="1.5"/>
  </filter>
</defs>

<defs>
  <radialGradient id="bg-g" cx="50%" cy="40%">
    <stop offset="0%" stop-color="#0e1a0e"/>
    <stop offset="100%" stop-color="#0a0a0a"/>
  </radialGradient>
</defs>
<rect x="0.0" y="0.0" width="200.0" height="250.0" fill="url(#bg-g)"/>
<rect x="0.0" y="0.0" width="48.0" height="33.0" fill="#2a3a2a" opacity="0.40" stroke="#2a3a2a" stroke-width="0.3"/>
<rect x="50.0" y="0.0" width="48.0" height="33.0" fill="#2a3a2a" opacity="0.43" stroke="#2a3a2a" stroke-width="0.3"/>
<rect x="100.0" y="0.0" width="48.0" height="33.0" fill="#2a3a2a" opacity="0.46" stroke="#2a3a2a" stroke-width="0.3"/>
<rect x="150.0" y="0.0" width="48.0" height="33.0" fill="#2a3a2a" opacity="0.40" stroke="#2a3a2a" stroke-width="0.3"/>
<rect x="16.0" y="34.0" width="38.0" height="33.0" fill="#2a3a2a" opacity="0.43" stroke="#2a3a2a" stroke-width="0.3"/>
<rect x="56.0" y="34.0" width="38.0" height="33.0" fill="#2a3a2a" opacity="0.46" stroke="#2a3a2a" stroke-width="0.3"/>
<rect x="96.0" y="34.0" width="38.0" height="33.0" fill="#2a3a2a" opacity="0.40" stroke="#2a3a2a" stroke-width="0.3"/>
<rect x="136.0" y="34.0" width="38.0" height="33.0" fill="#2a3a2a" opacity="0.43" stroke="#2a3a2a" stroke-width="0.3"/>
<rect x="176.0" y="34.0" width="24.0" height="33.0" fill="#2a3a2a" opacity="0.46" stroke="#2a3a2a" stroke-width="0.3"/>
<rect x="0.0" y="68.0" width="48.0" height="33.0" fill="#2a3a2a" opacity="0.46" stroke="#2a3a2a" stroke-width="0.3"/>
<rect x="50.0" y="68.0" width="48.0" height="33.0" fill="#2a3a2a" opacity="0.40" stroke="#2a3a2a" stroke-width="0.3"/>
<rect x="100.0" y="68.0" width="48.0" height="33.0" fill="#2a3a2a" opacity="0.43" stroke="#2a3a2a" stroke-width="0.3"/>
<rect x="150.0" y="68.0" width="48.0" height="33.0" fill="#2a3a2a" opacity="0.46" stroke="#2a3a2a" stroke-width="0.3"/>
<rect x="16.0" y="102.0" width="38.0" height="33.0" fill="#2a3a2a" opacity="0.40" stroke="#2a3a2a" stroke-width="0.3"/>
<rect x="56.0" y="102.0" width="38.0" height="33.0" fill="#2a3a2a" opacity="0.43" stroke="#2a3a2a" stroke-width="0.3"/>
<rect x="96.0" y="102.0" width="38.0" height="33.0" fill="#2a3a2a" opacity="0.46" stroke="#2a3a2a" stroke-width="0.3"/>
<rect x="136.0" y="102.0" width="38.0" height="33.0" fill="#2a3a2a" opacity="0.40" stroke="#2a3a2a" stroke-width="0.3"/>
<rect x="176.0" y="102.0" width="24.0" height="33.0" fill="#2a3a2a" opacity="0.43" stroke="#2a3a2a" stroke-width="0.3"/>
<rect x="0.0" y="136.0" width="48.0" height="33.0" fill="#2a3a2a" opacity="0.43" stroke="#2a3a2a" stroke-width="0.3"/>
<rect x="50.0" y="136.0" width="48.0" height="33.0" fill="#2a3a2a" opacity="0.46" stroke="#2a3a2a" stroke-width="0.3"/>
<rect x="100.0" y="136.0" width="48.0" height="33.0" fill="#2a3a2a" opacity="0.40" stroke="#2a3a2a" stroke-width="0.3"/>
<rect x="150.0" y="136.0" width="48.0" height="33.0" fill="#2a3a2a" opacity="0.43" stroke="#2a3a2a" stroke-width="0.3"/>
<path d="M0,170 L200,170 L200,250 L0,250 Z" fill="#1a2a1a" opacity="0.6"/>
<line x1="0.0" y1="170.0" x2="200.0" y2="170.0" stroke-linecap="round" stroke="#4a5a4a" stroke-width="0.5" opacity="0.15"/>
<line x1="0.0" y1="200.3" x2="200.0" y2="200.3" stroke-linecap="round" stroke="#4a5a4a" stroke-width="0.5" opacity="0.13"/>
<line x1="0.0" y1="219.2" x2="200.0" y2="219.2" stroke-linecap="round" stroke="#4a5a4a" stroke-width="0.5" opacity="0.11"/>
<line x1="0.0" y1="235.4" x2="200.0" y2="235.4" stroke-linecap="round" stroke="#4a5a4a" stroke-width="0.5" opacity="0.09"/>
<line x1="0.0" y1="250.0" x2="200.0" y2="250.0" stroke-linecap="round" stroke="#4a5a4a" stroke-width="0.5" opacity="0.07"/>
<line x1="0.0" y1="170.0" x2="70.0" y2="250.0" stroke-linecap="round" stroke="#4a5a4a" stroke-width="0.3" opacity="0.08"/>
<line x1="33.3" y1="170.0" x2="80.0" y2="250.0" stroke-linecap="round" stroke="#4a5a4a" stroke-width="0.3" opacity="0.08"/>
<line x1="66.7" y1="170.0" x2="90.0" y2="250.0" stroke-linecap="round" stroke="#4a5a4a" stroke-width="0.3" opacity="0.08"/>
<line x1="100.0" y1="170.0" x2="100.0" y2="250.0" stroke-linecap="round" stroke="#4a5a4a" stroke-width="0.3" opacity="0.08"/>
<line x1="133.3" y1="170.0" x2="110.0" y2="250.0" stroke-linecap="round" stroke="#4a5a4a" stroke-width="0.3" opacity="0.08"/>
<line x1="166.7" y1="170.0" x2="120.0" y2="250.0" stroke-linecap="round" stroke="#4a5a4a" stroke-width="0.3" opacity="0.08"/>
<line x1="200.0" y1="170.0" x2="130.0" y2="250.0" stroke-linecap="round" stroke="#4a5a4a" stroke-width="0.3" opacity="0.08"/>
<rect x="55.0" y="145.0" width="90.0" height="8.0" fill="#2a3a2a" stroke="#88aa88" stroke-width="0.5" opacity="0.7"/>
<rect x="70.0" y="153.0" width="8.0" height="25.0" fill="#2a3a2a" opacity="0.5"/>
<rect x="122.0" y="153.0" width="8.0" height="25.0" fill="#2a3a2a" opacity="0.5"/>
<circle cx="100.0" cy="130.0" r="28.0" fill="#1a2a1a" stroke="#88aa88" stroke-width="1" opacity="0.8"/>
<circle cx="100.0" cy="130.0" r="22.0" fill="#0a1a0a" stroke="#88aa88" stroke-width="0.5" opacity="0.6"/>
<path d="M100,110 L104,130 L100,148 L96,130 Z" fill="#88aa88" opacity="0.4"/>
<path d="M80,130 L100,126 L120,130 L100,134 Z" fill="#88aa88" opacity="0.3"/>
<path d="M100,110 L103,125 L97,125 Z" fill="#aaccaa" opacity="0.6"/>
<circle cx="100.0" cy="130.0" r="3.0" fill="#88aa88" opacity="0.5"/>
<line x1="122.0" y1="130.0" x2="125.0" y2="130.0" stroke-linecap="round" stroke="#88aa88" stroke-width="0.5" opacity="0.3"/>
<line x1="119.1" y1="141.0" x2="121.7" y2="142.5" stroke-linecap="round" stroke="#88aa88" stroke-width="0.5" opacity="0.3"/>
<line x1="111.0" y1="149.1" x2="112.5" y2="151.7" stroke-linecap="round" stroke="#88aa88" stroke-width="0.5" opacity="0.3"/>
<line x1="100.0" y1="152.0" x2="100.0" y2="155.0" stroke-linecap="round" stroke="#88aa88" stroke-width="0.5" opacity="0.3"/>
<line x1="89.0" y1="149.1" x2="87.5" y2="151.7" stroke-linecap="round" stroke="#88aa88" stroke-width="0.5" opacity="0.3"/>
<line x1="80.9" y1="141.0" x2="78.3" y2="142.5" stroke-linecap="round" stroke="#88aa88" stroke-width="0.5" opacity="0.3"/>
<line x1="78.0" y1="130.0" x2="75.0" y2="130.0" stroke-linecap="round" stroke="#88aa88" stroke-width="0.5" opacity="0.3"/>
<line x1="80.9" y1="119.0" x2="78.3" y2="117.5" stroke-linecap="round" stroke="#88aa88" stroke-width="0.5" opacity="0.3"/>
<line x1="89.0" y1="110.9" x2="87.5" y2="108.3" stroke-linecap="round" stroke="#88aa88" stroke-width="0.5" opacity="0.3"/>
<line x1="100.0" y1="108.0" x2="100.0" y2="105.0" stroke-linecap="round" stroke="#88aa88" stroke-width="0.5" opacity="0.3"/>
<line x1="111.0" y1="110.9" x2="112.5" y2="108.3" stroke-linecap="round" stroke="#88aa88" stroke-width="0.5" opacity="0.3"/>
<line x1="119.1" y1="119.0" x2="121.7" y2="117.5" stroke-linecap="round" stroke="#88aa88" stroke-width="0.5" opacity="0.3"/>
<rect x="15.0" y="40.0" width="35.0" height="50.0" fill="#1a2a1a" stroke="#88aa88" stroke-width="0.4" opacity="0.4"/>
<path d="M20,50 Q30,48 42,52" fill="none" stroke="#88aa88" stroke-width="0.3" opacity="0.2"/>
<path d="M20,60 Q30,58 42,62" fill="none" stroke="#88aa88" stroke-width="0.3" opacity="0.2"/>
<path d="M20,70 Q30,68 42,72" fill="none" stroke="#88aa88" stroke-width="0.3" opacity="0.2"/>
<path d="M20,80 Q30,78 42,82" fill="none" stroke="#88aa88" stroke-width="0.3" opacity="0.2"/>
<circle cx="100.0" cy="130.0" r="40.0" fill="#88aa88" opacity="0.04" filter="url(#glow-amb)"/>
<rect x="0.0" y="0.0" width="200.0" height="250.0" fill="none" stroke="#88aa88" stroke-width="1.5" opacity="0.12"/>
</svg>
