<svg viewBox="0 0 200 250" xmlns="http://www.w3.org/2000/svg">
<defs>
  <!-- Amber rim light -->
  <linearGradient id="rim-r" x1="0%" y1="0%" x2="100%" y2="0%">
    <stop offset="0%" stop-color="#ffb000" stop-opacity="0"/>
    <stop offset="70%" stop-color="#ffb000" stop-opacity="0"/>
    <stop offset="100%" stop-color="#ffb000" stop-opacity="0.25"/>
  </linearGradient>
  <!-- Metallic gold -->
  <linearGradient id="gold" x1="0%" y1="0%" x2="100%" y2="100%">
    <stop offset="0%" stop-color="#ffd700"/>
    <stop offset="50%" stop-color="#ffb000"/>
    <stop offset="100%" stop-color="#cc8800"/>
  </linearGradient>
  <!-- Metallic silver -->
  <linearGradient id="silver" x1="0%" y1="0%" x2="100%" y2="100%">
    <stop offset="0%" stop-color="#ccc"/>
    <stop offset="50%" stop-color="#aaa"/>
    <stop offset="100%" stop-color="#888"/>
  </linearGradient>
  <!-- Filters -->
  <filter id="glow-amb" x="-50%" y="-50%" width="200%" height="200%">
    <feGaussianBlur in="SourceGraphic" stdDeviation="8"/>
  </filter>
  <filter id="glow-sm" x="-30%" y="-30%" width="160%" height="160%">
    <feGaussianBlur in="SourceGraphic" stdDeviation="3"/>
  </filter>
  <filter id="glow-md" x="-40%" y="-40%" width="180%" height="180%">
    <feGaussianBlur in="SourceGraphic" stdDeviation="5"/>
  </filter>
  <filter id="soft" x="-10%" y="-10%" width="120%" height="120%">
    <feGaussianBlur in="SourceGraphic" stdDeviation="1.5"/>
  </filter>
</defs>

<defs>
  <radialGradient id="bg-g" cx="50%" cy="40%">
    <stop offset="0%" stop-color="#1a1600"/>
    <stop offset="100%" stop-color="#0a0a0a"/>
  </radialGradient>
</defs>
<rect x="0.0" y="0.0" width="200.0" height="250.0" fill="url(#bg-g)"/>
<rect x="0.0" y="0.0" width="48.0" height="31.0" fill="#3a3020" opacity="0.40" stroke="#3a3020" stroke-width="0.3"/>
<rect x="50.0" y="0.0" width="48.0" height="31.0" fill="#3a3020" opacity="0.43" stroke="#3a3020" stroke-width="0.3"/>
<rect x="100.0" y="0.0" width="48.0" height="31.0" fill="#3a3020" opacity="0.46" stroke="#3a3020" stroke-width="0.3"/>
<rect x="150.0" y="0.0" width="48.0" height="31.0" fill="#3a3020" opacity="0.40" stroke="#3a3020" stroke-width="0.3"/>
<rect x="16.0" y="32.0" width="38.0" height="31.0" fill="#3a3020" opacity="0.43" stroke="#3a3020" stroke-width="0.3"/>
<rect x="56.0" y="32.0" width="38.0" height="31.0" fill="#3a3020" opacity="0.46" stroke="#3a3020" stroke-width="0.3"/>
<rect x="96.0" y="32.0" width="38.0" height="31.0" fill="#3a3020" opacity="0.40" stroke="#3a3020" stroke-width="0.3"/>
<rect x="136.0" y="32.0" width="38.0" height="31.0" fill="#3a3020" opacity="0.43" stroke="#3a3020" stroke-width="0.3"/>
<rect x="176.0" y="32.0" width="24.0" height="31.0" fill="#3a3020" opacity="0.46" stroke="#3a3020" stroke-width="0.3"/>
<rect x="0.0" y="64.0" width="48.0" height="31.0" fill="#3a3020" opacity="0.46" stroke="#3a3020" stroke-width="0.3"/>
<rect x="50.0" y="64.0" width="48.0" height="31.0" fill="#3a3020" opacity="0.40" stroke="#3a3020" stroke-width="0.3"/>
<rect x="100.0" y="64.0" width="48.0" height="31.0" fill="#3a3020" opacity="0.43" stroke="#3a3020" stroke-width="0.3"/>
<rect x="150.0" y="64.0" width="48.0" height="31.0" fill="#3a3020" opacity="0.46" stroke="#3a3020" stroke-width="0.3"/>
<rect x="16.0" y="96.0" width="38.0" height="31.0" fill="#3a3020" opacity="0.40" stroke="#3a3020" stroke-width="0.3"/>
<rect x="56.0" y="96.0" width="38.0" height="31.0" fill="#3a3020" opacity="0.43" stroke="#3a3020" stroke-width="0.3"/>
<rect x="96.0" y="96.0" width="38.0" height="31.0" fill="#3a3020" opacity="0.46" stroke="#3a3020" stroke-width="0.3"/>
<rect x="136.0" y="96.0" width="38.0" height="31.0" fill="#3a3020" opacity="0.40" stroke="#3a3020" stroke-width="0.3"/>
<rect x="176.0" y="96.0" width="24.0" height="31.0" fill="#3a3020" opacity="0.43" stroke="#3a3020" stroke-width="0.3"/>
<rect x="0.0" y="128.0" width="48.0" height="31.0" fill="#3a3020" opacity="0.43" stroke="#3a3020" stroke-width="0.3"/>
<rect x="50.0" y="128.0" width="48.0" height="31.0" fill="#3a3020" opacity="0.46" stroke="#3a3020" stroke-width="0.3"/>
<rect x="100.0" y="128.0" width="48.0" height="31.0" fill="#3a3020" opacity="0.40" stroke="#3a3020" stroke-width="0.3"/>
<rect x="150.0" y="128.0" width="48.0" height="31.0" fill="#3a3020" opacity="0.43" stroke="#3a3020" stroke-width="0.3"/>
<path d="M0,160 L200,160 L200,250 L0,250 Z" fill="#1a1400" opacity="0.6"/>
<line x1="0.0" y1="160.0" x2="200.0" y2="160.0" stroke-linecap="round" stroke="#554400" stroke-width="0.5" opacity="0.15"/>
<line x1="0.0" y1="194.1" x2="200.0" y2="194.1" stroke-linecap="round" stroke="#554400" stroke-width="0.5" opacity="0.13"/>
<line x1="0.0" y1="215.4" x2="200.0" y2="215.4" stroke-linecap="round" stroke="#554400" stroke-width="0.5" opacity="0.11"/>
<line x1="0.0" y1="233.6" x2="200.0" y2="233.6" stroke-linecap="round" stroke="#554400" stroke-width="0.5" opacity="0.09"/>
<line x1="0.0" y1="250.0" x2="200.0" y2="250.0" stroke-linecap="round" stroke="#554400" stroke-width="0.5" opacity="0.07"/>
<line x1="0.0" y1="160.0" x2="70.0" y2="250.0" stroke-linecap="round" stroke="#554400" stroke-width="0.3" opacity="0.08"/>
<line x1="33.3" y1="160.0" x2="80.0" y2="250.0" stroke-linecap="round" stroke="#554400" stroke-width="0.3" opacity="0.08"/>
<line x1="66.7" y1="160.0" x2="90.0" y2="250.0" stroke-linecap="round" stroke="#554400" stroke-width="0.3" opacity="0.08"/>
<line x1="100.0" y1="160.0" x2="100.0" y2="250.0" stroke-linecap="round" stroke="#554400" stroke-width="0.3" opacity="0.08"/>
<line x1="133.3" y1="160.0" x2="110.0" y2="250.0" stroke-linecap="round" stroke="#554400" stroke-width="0.3" opacity="0.08"/>
<line x1="166.7" y1="160.0" x2="120.0" y2="250.0" stroke-linecap="round" stroke="#554400" stroke-width="0.3" opacity="0.08"/>
<line x1="200.0" y1="160.0" x2="130.0" y2="250.0" stroke-linecap="round" stroke="#554400" stroke-width="0.3" opacity="0.08"/>
<rect x="97.0" y="80.0" width="6.0" height="85.0" fill="#3a3020" stroke="#ffcc00" stroke-width="0.5" opacity="0.6"/>
<line x1="50.0" y1="85.0" x2="150.0" y2="85.0" stroke-linecap="round" stroke="#ffcc00" stroke-width="1.5" opacity="0.5"/>
<path d="M95,75 L100,65 L105,75 Z" fill="#ffcc00" opacity="0.5"/>
<path d="M35,85 L50,80 L65,85 L60,95 Q50,100 40,95 Z" fill="#3a3020" stroke="#ffcc00" stroke-width="0.6" opacity="0.5"/>
<line x1="42.0" y1="85.0" x2="50.0" y2="80.0" stroke-linecap="round" stroke="#ffcc00" stroke-width="0.4" opacity="0.3"/>
<line x1="58.0" y1="85.0" x2="50.0" y2="80.0" stroke-linecap="round" stroke="#ffcc00" stroke-width="0.4" opacity="0.3"/>
<path d="M135,85 L150,80 L165,85 L160,95 Q150,100 140,95 Z" fill="#3a3020" stroke="#ffcc00" stroke-width="0.6" opacity="0.5"/>
<line x1="142.0" y1="85.0" x2="150.0" y2="80.0" stroke-linecap="round" stroke="#ffcc00" stroke-width="0.4" opacity="0.3"/>
<line x1="158.0" y1="85.0" x2="150.0" y2="80.0" stroke-linecap="round" stroke="#ffcc00" stroke-width="0.4" opacity="0.3"/>
<path d="M30,20 Q33,38.0 28,65" fill="none" stroke="#ff4444" stroke-width="0.8" opacity="0.25"/>
<circle cx="30.0" cy="42.5" r="3.0" fill="#ff4444" opacity="0.03" filter="url(#glow-sm)"/>
<path d="M165,15 Q168,37.0 163,70" fill="none" stroke="#ff4444" stroke-width="0.8" opacity="0.25"/>
<circle cx="165.0" cy="42.5" r="3.0" fill="#ff4444" opacity="0.03" filter="url(#glow-sm)"/>
<path d="M85,10 Q88,22.0 83,40" fill="none" stroke="#ff4444" stroke-width="0.8" opacity="0.25"/>
<circle cx="85.0" cy="25.0" r="3.0" fill="#ff4444" opacity="0.03" filter="url(#glow-sm)"/>
<path d="M140,40 Q143,54.0 138,75" fill="none" stroke="#ff4444" stroke-width="0.8" opacity="0.25"/>
<circle cx="140.0" cy="57.5" r="3.0" fill="#ff4444" opacity="0.03" filter="url(#glow-sm)"/>
<rect x="0.0" y="0.0" width="200.0" height="160.0" fill="#ff4444" opacity="0.015"/>
<circle cx="100.0" cy="85.0" r="45.0" fill="#ffcc00" opacity="0.04" filter="url(#glow-amb)"/>
<path d="M100,65 Q97,55 100,45 Q103,55 100,65" fill="#ffcc00" opacity="0.2"/>
<circle cx="100.0" cy="50.0" r="6.0" fill="#ffcc00" opacity="0.03" filter="url(#glow-sm)"/>
<rect x="0.0" y="0.0" width="200.0" height="250.0" fill="none" stroke="#ffcc00" stroke-width="1.5" opacity="0.12"/>
</svg>
