<svg viewBox="0 0 200 250" xmlns="http://www.w3.org/2000/svg">
<defs>
  <!-- Amber rim light -->
  <linearGradient id="rim-r" x1="0%" y1="0%" x2="100%" y2="0%">
    <stop offset="0%" stop-color="#ffb000" stop-opacity="0"/>
    <stop offset="70%" stop-color="#ffb000" stop-opacity="0"/>
    <stop offset="100%" stop-color="#ffb000" stop-opacity="0.25"/>
  </linearGradient>
  <!-- Metallic gold -->
  <linearGradient id="gold" x1="0%" y1="0%" x2="100%" y2="100%">
    <stop offset="0%" stop-color="#ffd700"/>
    <stop offset="50%" stop-color="#ffb000"/>
    <stop offset="100%" stop-color="#cc8800"/>
  </linearGradient>
  <!-- Metallic silver -->
  <linearGradient id="silver" x1="0%" y1="0%" x2="100%" y2="100%">
    <stop offset="0%" stop-color="#ccc"/>
    <stop offset="50%" stop-color="#aaa"/>
    <stop offset="100%" stop-color="#888"/>
  </linearGradient>
  <!-- Filters -->
  <filter id="glow-amb" x="-50%" y="-50%" width="200%" height="200%">
    <feGaussianBlur in="SourceGraphic" stdDeviation="8"/>
  </filter>
  <filter id="glow-sm" x="-30%" y="-30%" width="160%" height="160%">
    <feGaussianBlur in="SourceGraphic" stdDeviation="3"/>
  </filter>
  <filter id="glow-md" x="-40%" y="-40%" width="180%" height="180%">
    <feGaussianBlur in="SourceGraphic" stdDeviation="5"/>
  </filter>
  <filter id="soft" x="-10%" y="-10%" width="120%" height="120%">
    <feGaussianBlur in="SourceGraphic" stdDeviation="1.5"/>
  </filter>
</defs>

<defs>
  <radialGradient id="bg-g" cx="50%" cy="40%">
    <stop offset="0%" stop-color="#140e1a"/>
    <stop offset="100%" stop-color="#0a0a0a"/>
  </radialGradient>
</defs>
<rect x="0.0" y="0.0" width="200.0" height="250.0" fill="url(#bg-g)"/>
<rect x="5.0" y="30.0" width="50.0" height="3.0" fill="#3a2a3a" stroke="#9966cc" stroke-width="0.3" opacity="0.6"/>
<rect x="8.0" y="2.0" width="5.0" height="28.0" fill="#4a2a5a" opacity="0.7"/>
<rect x="15.0" y="-4.0" width="5.0" height="34.0" fill="#3a1a4a" opacity="0.7"/>
<rect x="22.0" y="-10.0" width="5.0" height="40.0" fill="#5a3a6a" opacity="0.7"/>
<rect x="29.0" y="2.0" width="5.0" height="28.0" fill="#2a1a3a" opacity="0.7"/>
<rect x="36.0" y="-4.0" width="5.0" height="34.0" fill="#6a4a7a" opacity="0.7"/>
<rect x="43.0" y="-10.0" width="5.0" height="40.0" fill="#3a2a4a" opacity="0.7"/>
<rect x="5.0" y="72.0" width="50.0" height="3.0" fill="#3a2a3a" stroke="#9966cc" stroke-width="0.3" opacity="0.6"/>
<rect x="8.0" y="44.0" width="5.0" height="28.0" fill="#4a2a5a" opacity="0.7"/>
<rect x="15.0" y="38.0" width="5.0" height="34.0" fill="#3a1a4a" opacity="0.7"/>
<rect x="22.0" y="32.0" width="5.0" height="40.0" fill="#5a3a6a" opacity="0.7"/>
<rect x="29.0" y="44.0" width="5.0" height="28.0" fill="#2a1a3a" opacity="0.7"/>
<rect x="36.0" y="38.0" width="5.0" height="34.0" fill="#6a4a7a" opacity="0.7"/>
<rect x="43.0" y="32.0" width="5.0" height="40.0" fill="#3a2a4a" opacity="0.7"/>
<rect x="5.0" y="114.0" width="50.0" height="3.0" fill="#3a2a3a" stroke="#9966cc" stroke-width="0.3" opacity="0.6"/>
<rect x="8.0" y="86.0" width="5.0" height="28.0" fill="#4a2a5a" opacity="0.7"/>
<rect x="15.0" y="80.0" width="5.0" height="34.0" fill="#3a1a4a" opacity="0.7"/>
<rect x="22.0" y="74.0" width="5.0" height="40.0" fill="#5a3a6a" opacity="0.7"/>
<rect x="29.0" y="86.0" width="5.0" height="28.0" fill="#2a1a3a" opacity="0.7"/>
<rect x="36.0" y="80.0" width="5.0" height="34.0" fill="#6a4a7a" opacity="0.7"/>
<rect x="43.0" y="74.0" width="5.0" height="40.0" fill="#3a2a4a" opacity="0.7"/>
<rect x="5.0" y="156.0" width="50.0" height="3.0" fill="#3a2a3a" stroke="#9966cc" stroke-width="0.3" opacity="0.6"/>
<rect x="8.0" y="128.0" width="5.0" height="28.0" fill="#4a2a5a" opacity="0.7"/>
<rect x="15.0" y="122.0" width="5.0" height="34.0" fill="#3a1a4a" opacity="0.7"/>
<rect x="22.0" y="116.0" width="5.0" height="40.0" fill="#5a3a6a" opacity="0.7"/>
<rect x="29.0" y="128.0" width="5.0" height="28.0" fill="#2a1a3a" opacity="0.7"/>
<rect x="36.0" y="122.0" width="5.0" height="34.0" fill="#6a4a7a" opacity="0.7"/>
<rect x="43.0" y="116.0" width="5.0" height="40.0" fill="#3a2a4a" opacity="0.7"/>
<rect x="5.0" y="198.0" width="50.0" height="3.0" fill="#3a2a3a" stroke="#9966cc" stroke-width="0.3" opacity="0.6"/>
<rect x="8.0" y="170.0" width="5.0" height="28.0" fill="#4a2a5a" opacity="0.7"/>
<rect x="15.0" y="164.0" width="5.0" height="34.0" fill="#3a1a4a" opacity="0.7"/>
<rect x="22.0" y="158.0" width="5.0" height="40.0" fill="#5a3a6a" opacity="0.7"/>
<rect x="29.0" y="170.0" width="5.0" height="28.0" fill="#2a1a3a" opacity="0.7"/>
<rect x="36.0" y="164.0" width="5.0" height="34.0" fill="#6a4a7a" opacity="0.7"/>
<rect x="43.0" y="158.0" width="5.0" height="40.0" fill="#3a2a4a" opacity="0.7"/>
<rect x="145.0" y="30.0" width="50.0" height="3.0" fill="#3a2a3a" stroke="#9966cc" stroke-width="0.3" opacity="0.6"/>
<rect x="148.0" y="-10.0" width="5.0" height="40.0" fill="#5a3a6a" opacity="0.7"/>
<rect x="155.0" y="0.0" width="5.0" height="30.0" fill="#3a1a4a" opacity="0.7"/>
<rect x="162.0" y="-5.0" width="5.0" height="35.0" fill="#4a2a5a" opacity="0.7"/>
<rect x="169.0" y="-10.0" width="5.0" height="40.0" fill="#2a1a3a" opacity="0.7"/>
<rect x="176.0" y="0.0" width="5.0" height="30.0" fill="#3a2a4a" opacity="0.7"/>
<rect x="183.0" y="-5.0" width="5.0" height="35.0" fill="#6a4a7a" opacity="0.7"/>
<rect x="145.0" y="72.0" width="50.0" height="3.0" fill="#3a2a3a" stroke="#9966cc" stroke-width="0.3" opacity="0.6"/>
<rect x="148.0" y="32.0" width="5.0" height="40.0" fill="#5a3a6a" opacity="0.7"/>
<rect x="155.0" y="42.0" width="5.0" height="30.0" fill="#3a1a4a" opacity="0.7"/>
<rect x="162.0" y="37.0" width="5.0" height="35.0" fill="#4a2a5a" opacity="0.7"/>
<rect x="169.0" y="32.0" width="5.0" height="40.0" fill="#2a1a3a" opacity="0.7"/>
<rect x="176.0" y="42.0" width="5.0" height="30.0" fill="#3a2a4a" opacity="0.7"/>
<rect x="183.0" y="37.0" width="5.0" height="35.0" fill="#6a4a7a" opacity="0.7"/>
<rect x="145.0" y="114.0" width="50.0" height="3.0" fill="#3a2a3a" stroke="#9966cc" stroke-width="0.3" opacity="0.6"/>
<rect x="148.0" y="74.0" width="5.0" height="40.0" fill="#5a3a6a" opacity="0.7"/>
<rect x="155.0" y="84.0" width="5.0" height="30.0" fill="#3a1a4a" opacity="0.7"/>
<rect x="162.0" y="79.0" width="5.0" height="35.0" fill="#4a2a5a" opacity="0.7"/>
<rect x="169.0" y="74.0" width="5.0" height="40.0" fill="#2a1a3a" opacity="0.7"/>
<rect x="176.0" y="84.0" width="5.0" height="30.0" fill="#3a2a4a" opacity="0.7"/>
<rect x="183.0" y="79.0" width="5.0" height="35.0" fill="#6a4a7a" opacity="0.7"/>
<rect x="145.0" y="156.0" width="50.0" height="3.0" fill="#3a2a3a" stroke="#9966cc" stroke-width="0.3" opacity="0.6"/>
<rect x="148.0" y="116.0" width="5.0" height="40.0" fill="#5a3a6a" opacity="0.7"/>
<rect x="155.0" y="126.0" width="5.0" height="30.0" fill="#3a1a4a" opacity="0.7"/>
<rect x="162.0" y="121.0" width="5.0" height="35.0" fill="#4a2a5a" opacity="0.7"/>
<rect x="169.0" y="116.0" width="5.0" height="40.0" fill="#2a1a3a" opacity="0.7"/>
<rect x="176.0" y="126.0" width="5.0" height="30.0" fill="#3a2a4a" opacity="0.7"/>
<rect x="183.0" y="121.0" width="5.0" height="35.0" fill="#6a4a7a" opacity="0.7"/>
<rect x="145.0" y="198.0" width="50.0" height="3.0" fill="#3a2a3a" stroke="#9966cc" stroke-width="0.3" opacity="0.6"/>
<rect x="148.0" y="158.0" width="5.0" height="40.0" fill="#5a3a6a" opacity="0.7"/>
<rect x="155.0" y="168.0" width="5.0" height="30.0" fill="#3a1a4a" opacity="0.7"/>
<rect x="162.0" y="163.0" width="5.0" height="35.0" fill="#4a2a5a" opacity="0.7"/>
<rect x="169.0" y="158.0" width="5.0" height="40.0" fill="#2a1a3a" opacity="0.7"/>
<rect x="176.0" y="168.0" width="5.0" height="30.0" fill="#3a2a4a" opacity="0.7"/>
<rect x="183.0" y="163.0" width="5.0" height="35.0" fill="#6a4a7a" opacity="0.7"/>
<path d="M0,215 L200,215 L200,250 L0,250 Z" fill="#1a1020" opacity="0.6"/>
<line x1="0.0" y1="215.0" x2="200.0" y2="215.0" stroke-linecap="round" stroke="#4a3a5a" stroke-width="0.5" opacity="0.15"/>
<line x1="0.0" y1="228.3" x2="200.0" y2="228.3" stroke-linecap="round" stroke="#4a3a5a" stroke-width="0.5" opacity="0.13"/>
<line x1="0.0" y1="236.5" x2="200.0" y2="236.5" stroke-linecap="round" stroke="#4a3a5a" stroke-width="0.5" opacity="0.11"/>
<line x1="0.0" y1="243.6" x2="200.0" y2="243.6" stroke-linecap="round" stroke="#4a3a5a" stroke-width="0.5" opacity="0.09"/>
<line x1="0.0" y1="250.0" x2="200.0" y2="250.0" stroke-linecap="round" stroke="#4a3a5a" stroke-width="0.5" opacity="0.07"/>
<line x1="0.0" y1="215.0" x2="70.0" y2="250.0" stroke-linecap="round" stroke="#4a3a5a" stroke-width="0.3" opacity="0.08"/>
<line x1="33.3" y1="215.0" x2="80.0" y2="250.0" stroke-linecap="round" stroke="#4a3a5a" stroke-width="0.3" opacity="0.08"/>
<line x1="66.7" y1="215.0" x2="90.0" y2="250.0" stroke-linecap="round" stroke="#4a3a5a" stroke-width="0.3" opacity="0.08"/>
<line x1="100.0" y1="215.0" x2="100.0" y2="250.0" stroke-linecap="round" stroke="#4a3a5a" stroke-width="0.3" opacity="0.08"/>
<line x1="133.3" y1="215.0" x2="110.0" y2="250.0" stroke-linecap="round" stroke="#4a3a5a" stroke-width="0.3" opacity="0.08"/>
<line x1="166.7" y1="215.0" x2="120.0" y2="250.0" stroke-linecap="round" stroke="#4a3a5a" stroke-width="0.3" opacity="0.08"/>
<line x1="200.0" y1="215.0" x2="130.0" y2="250.0" stroke-linecap="round" stroke="#4a3a5a" stroke-width="0.3" opacity="0.08"/>
<rect x="65.0" y="200.0" width="70.0" height="8.0" fill="#2a1a2a" stroke="#9966cc" stroke-width="0.5" opacity="0.6"/>
<rect x="85.0" y="208.0" width="8.0" height="30.0" fill="#2a1a2a" opacity="0.5"/>
<rect x="107.0" y="208.0" width="8.0" height="30.0" fill="#2a1a2a" opacity="0.5"/>
<rect x="72.0" y="192.0" width="14.0" height="8.0" fill="#1f1a0a" stroke="#9966cc" stroke-width="0.3" opacity="0.5"/>
<rect x="110.0" y="190.0" width="18.0" height="10.0" fill="#1f1a0a" stroke="#9966cc" stroke-width="0.3" opacity="0.5"/>
<circle cx="100.0" cy="15.0" r="30.0" fill="#9966cc" opacity="0.06" filter="url(#glow-amb)"/>
<circle cx="100.0" cy="0.0" r="60.0" fill="#bbaadd" opacity="0.03" filter="url(#glow-amb)"/>
<rect x="0.0" y="0.0" width="200.0" height="250.0" fill="none" stroke="#9966cc" stroke-width="1.5" opacity="0.12"/>
</svg>
